<svg width="151" height="20" viewBox="0 0 151 20" fill="none" xmlns="http://www.w3.org/2000/svg">
<path d="M13.0409 14.8716L11.0819 15.1538C10.7554 14.0249 10.4096 12.9043 10.0443 11.792L3.36219 12.0825C2.96375 13.1284 2.58468 14.1882 2.22498 15.2617L0.340706 15.0044C1.12098 12.9126 1.98426 10.854 2.93055 8.82861C3.88237 6.80322 4.89507 4.7972 5.96864 2.81055L8.29285 2.85205C9.24468 4.7723 10.1135 6.73128 10.8993 8.729C11.6851 10.7212 12.399 12.7687 13.0409 14.8716ZM6.95643 4.18848C6.39751 5.25098 5.86903 6.31901 5.37098 7.39258C4.87293 8.46061 4.39702 9.54248 3.94324 10.6382L9.55457 10.3975C9.17827 9.33496 8.7743 8.29183 8.34266 7.26807C7.91102 6.2443 7.44894 5.21777 6.95643 4.18848ZM32.0656 8.57959C32.0656 9.3488 31.9328 10.0461 31.6672 10.6714C31.396 11.2912 31.0308 11.8446 30.5715 12.3315C30.1177 12.813 29.5865 13.2253 28.9777 13.5684C28.6734 13.7399 28.3607 13.8976 28.0397 14.0415C27.7188 14.1854 27.3895 14.3127 27.052 14.4233C26.3768 14.6447 25.6879 14.8079 24.9851 14.9131C24.2823 15.0182 23.6044 15.0708 22.9514 15.0708C22.73 15.0708 22.5114 15.0653 22.2956 15.0542C22.0798 15.0431 21.875 15.021 21.6814 14.9878L21.3576 2.66113C22.2209 2.59473 23.0095 2.56152 23.7233 2.56152C24.0332 2.56152 24.3459 2.56706 24.6613 2.57812C24.9768 2.58919 25.2977 2.60579 25.6242 2.62793C26.2772 2.67773 26.9108 2.77734 27.5251 2.92676C28.1449 3.07064 28.7315 3.27816 29.2849 3.54932C29.8327 3.82048 30.3142 4.17741 30.7292 4.62012C31.1387 5.06836 31.4624 5.61621 31.7004 6.26367C31.9439 6.91113 32.0656 7.68311 32.0656 8.57959ZM30.5051 8.49658C30.4885 7.96533 30.3972 7.47835 30.2312 7.03564C30.0651 6.604 29.8383 6.22217 29.5505 5.89014C29.2683 5.55257 28.9362 5.26481 28.5544 5.02686C28.3662 4.90511 28.167 4.7972 27.9567 4.70312C27.752 4.60352 27.5389 4.51497 27.3176 4.4375C26.8749 4.28255 26.41 4.16911 25.923 4.09717C25.4361 4.02523 24.9463 3.98926 24.4538 3.98926C24.2435 3.98926 24.0194 3.99756 23.7814 4.01416C23.549 4.02523 23.3083 4.0446 23.0593 4.07227L23.3166 13.4604C23.3609 13.466 23.4079 13.4715 23.4577 13.4771C23.5075 13.4771 23.5573 13.4771 23.6071 13.4771H23.8894C24.4427 13.4771 24.9934 13.4272 25.5412 13.3276C26.6646 13.1229 27.6441 12.7355 28.4797 12.1655C28.8947 11.8888 29.2572 11.5623 29.5671 11.186C29.8715 10.8208 30.1066 10.4141 30.2727 9.96582C30.4442 9.51204 30.5217 9.0223 30.5051 8.49658ZM38.3075 13.917C38.9217 13.917 39.4862 13.7344 40.0008 13.3691C40.5155 12.9984 40.8503 12.4837 41.0052 11.8252L42.6073 12.1489C42.4523 12.6525 42.2338 13.109 41.9515 13.5186C41.6693 13.9281 41.34 14.2795 40.9637 14.5728C40.5874 14.866 40.1724 15.0929 39.7186 15.2534C39.2704 15.4139 38.8 15.4941 38.3075 15.4941C37.577 15.4941 36.9296 15.3835 36.3651 15.1621C35.8006 14.9408 35.3247 14.6281 34.9374 14.2241C34.146 13.3996 33.7504 12.2762 33.7504 10.854C33.7504 10.1623 33.8666 9.51758 34.099 8.91992C34.3369 8.31673 34.6607 7.79378 35.0702 7.35107C35.4797 6.90837 35.9611 6.55973 36.5145 6.30518C37.0679 6.05062 37.6656 5.92334 38.3075 5.92334C38.883 5.92334 39.4253 6.03678 39.9344 6.26367C40.4436 6.48503 40.8946 6.79215 41.2875 7.18506C41.6804 7.5835 42.0041 8.05111 42.2587 8.58789C42.5132 9.12467 42.6737 9.70573 42.7401 10.3311L35.5516 11.4019C35.5904 11.7948 35.6872 12.1489 35.8422 12.4644C36.0026 12.7743 36.2019 13.0371 36.4398 13.2529C36.9323 13.6956 37.5549 13.917 38.3075 13.917ZM35.6014 9.86621L40.5985 9.26025L40.5487 9.10254C40.3384 8.55469 40.0479 8.12581 39.6771 7.81592C39.3119 7.50602 38.8553 7.35107 38.3075 7.35107C38.0751 7.35107 37.8205 7.39258 37.5438 7.47559C37.2671 7.55306 36.9987 7.68864 36.7386 7.88232C36.4785 8.07601 36.2434 8.3361 36.0331 8.6626C35.8283 8.98356 35.6844 9.38477 35.6014 9.86621ZM48.21 13.4604L50.8496 6.03125L52.5596 6.26367L49.2974 15.0044L46.9566 14.9712L44.043 6.5874L45.7281 6.33008L48.21 13.4604ZM58.4445 13.917C59.0588 13.917 59.6232 13.7344 60.1379 13.3691C60.6525 12.9984 60.9873 12.4837 61.1423 11.8252L62.7443 12.1489C62.5894 12.6525 62.3708 13.109 62.0886 13.5186C61.8063 13.9281 61.4771 14.2795 61.1008 14.5728C60.7245 14.866 60.3094 15.0929 59.8556 15.2534C59.4074 15.4139 58.937 15.4941 58.4445 15.4941C57.714 15.4941 57.0666 15.3835 56.5021 15.1621C55.9377 14.9408 55.4618 14.6281 55.0744 14.2241C54.2831 13.3996 53.8874 12.2762 53.8874 10.854C53.8874 10.1623 54.0036 9.51758 54.236 8.91992C54.474 8.31673 54.7977 7.79378 55.2072 7.35107C55.6167 6.90837 56.0982 6.55973 56.6515 6.30518C57.2049 6.05062 57.8026 5.92334 58.4445 5.92334C59.02 5.92334 59.5624 6.03678 60.0715 6.26367C60.5806 6.48503 61.0316 6.79215 61.4245 7.18506C61.8174 7.5835 62.1411 8.05111 62.3957 8.58789C62.6502 9.12467 62.8107 9.70573 62.8771 10.3311L55.6887 11.4019C55.7274 11.7948 55.8242 12.1489 55.9792 12.4644C56.1397 12.7743 56.3389 13.0371 56.5768 13.2529C57.0694 13.6956 57.6919 13.917 58.4445 13.917ZM55.7385 9.86621L60.7355 9.26025L60.6857 9.10254C60.4754 8.55469 60.1849 8.12581 59.8141 7.81592C59.4489 7.50602 58.9924 7.35107 58.4445 7.35107C58.2121 7.35107 57.9575 7.39258 57.6808 7.47559C57.4042 7.55306 57.1358 7.68864 56.8757 7.88232C56.6156 8.07601 56.3804 8.3361 56.1701 8.6626C55.9653 8.98356 55.8215 9.38477 55.7385 9.86621ZM68.3802 13.4355L68.1644 15.0874C67.7715 15.0819 67.4229 15.0155 67.1185 14.8882C66.8197 14.7609 66.5568 14.5949 66.3299 14.3901C66.0975 14.1909 65.8983 13.9613 65.7323 13.7012C65.5718 13.4411 65.4362 13.1782 65.3255 12.9126C65.0599 12.2817 64.8939 11.5679 64.8275 10.771L65.0516 0.245605H66.7865L66.7118 2.95166C66.7007 3.36117 66.6896 3.75407 66.6786 4.13037C66.6675 4.50114 66.6564 4.85531 66.6454 5.19287C66.6288 5.86247 66.6122 6.46566 66.5956 7.00244C66.5845 7.53369 66.5734 8.0013 66.5623 8.40527C66.5347 9.36263 66.5181 10.1125 66.5125 10.6548C66.5181 11.1639 66.5928 11.6232 66.7367 12.0327C66.8584 12.409 67.0493 12.7355 67.3094 13.0122C67.5695 13.2834 67.9264 13.4245 68.3802 13.4355ZM78.3325 10.6548C78.3325 11.3521 78.2163 11.9967 77.9839 12.5889C77.7515 13.181 77.4333 13.6956 77.0293 14.1328C76.6253 14.57 76.1522 14.9103 75.6099 15.1538C75.0675 15.4028 74.4893 15.5273 73.875 15.5273C72.6188 15.5273 71.5757 15.0791 70.7456 14.1826C70.3416 13.7565 70.0234 13.2446 69.791 12.647C69.5586 12.0493 69.4424 11.3853 69.4424 10.6548C69.4424 9.91878 69.5586 9.25195 69.791 8.6543C70.0234 8.05111 70.3416 7.53646 70.7456 7.11035C71.144 6.68424 71.6117 6.35498 72.1484 6.12256C72.6852 5.89014 73.2607 5.77393 73.875 5.77393C74.4893 5.77393 75.0675 5.89844 75.6099 6.14746C76.1522 6.39095 76.6253 6.72852 77.0293 7.16016C77.4333 7.59733 77.7515 8.11475 77.9839 8.7124C78.2163 9.30452 78.3325 9.95199 78.3325 10.6548ZM76.5811 10.6382C76.5811 10.2397 76.5312 9.83577 76.4316 9.42627C76.332 9.01676 76.1743 8.65153 75.9585 8.33057C75.7427 8.00407 75.4632 7.74121 75.1201 7.54199C74.777 7.33724 74.362 7.23486 73.875 7.23486C73.4046 7.23486 73.0007 7.33724 72.6631 7.54199C72.3255 7.74121 72.0488 8.00407 71.833 8.33057C71.6172 8.65153 71.4595 9.01676 71.3599 9.42627C71.2603 9.83577 71.2104 10.2397 71.2104 10.6382C71.2104 11.0366 71.263 11.4378 71.3682 11.8418C71.4788 12.2402 71.6449 12.6027 71.8662 12.9292C72.0876 13.2502 72.3643 13.5158 72.6963 13.7261C73.0339 13.9308 73.4268 14.0332 73.875 14.0332C74.3454 14.0332 74.7493 13.9308 75.0869 13.7261C75.43 13.5158 75.7122 13.2502 75.9336 12.9292C76.1549 12.6027 76.3182 12.2402 76.4233 11.8418C76.5285 11.4378 76.5811 11.0366 76.5811 10.6382ZM80.673 19.6943L80.5319 6.04785L82.3581 5.97314L82.3415 7.18506C82.6569 6.87516 82.9862 6.63721 83.3293 6.47119C83.6724 6.29964 83.9878 6.1696 84.2756 6.08105C84.6297 5.97591 84.959 5.91227 85.2633 5.89014C85.6452 5.89014 86.0187 5.94271 86.3839 6.04785C87.131 6.26367 87.7895 6.65381 88.3595 7.21826C88.6418 7.48942 88.8825 7.79655 89.0817 8.13965C89.2809 8.47721 89.4331 8.84521 89.5382 9.24365C89.6489 9.63656 89.696 10.0488 89.6794 10.4805C89.6628 10.9453 89.5908 11.3936 89.4635 11.8252C89.209 12.6608 88.7995 13.3636 88.235 13.9336C87.9639 14.2158 87.6706 14.4538 87.3551 14.6475C86.7132 15.0459 86.0547 15.2451 85.3796 15.2451C85.042 15.2396 84.6989 15.1898 84.3503 15.0957C84.0459 15.0182 83.7111 14.8965 83.3459 14.7305C82.9806 14.57 82.6209 14.3376 82.2668 14.0332L82.217 19.6611L80.673 19.6943ZM87.8117 10.6382C87.856 9.79704 87.6208 9.0804 87.1061 8.48828C86.8571 8.20605 86.561 7.98193 86.2179 7.81592C85.8748 7.6499 85.4985 7.56966 85.089 7.5752C84.4194 7.58626 83.8328 7.80208 83.3293 8.22266C82.8312 8.6377 82.4936 9.14128 82.3166 9.7334L82.3 11.3105C82.383 11.6758 82.513 11.9967 82.6901 12.2734C82.8727 12.5501 83.083 12.7798 83.321 12.9624C83.8079 13.3387 84.353 13.5324 84.9562 13.5435C85.3436 13.5545 85.7061 13.4854 86.0436 13.3359C86.3867 13.1865 86.6855 12.979 86.9401 12.7134C87.1947 12.4478 87.3966 12.1379 87.5461 11.7837C87.701 11.4295 87.7895 11.0477 87.8117 10.6382ZM95.8465 13.917C96.4608 13.917 97.0252 13.7344 97.5399 13.3691C98.0545 12.9984 98.3893 12.4837 98.5443 11.8252L100.146 12.1489C99.9914 12.6525 99.7728 13.109 99.4905 13.5186C99.2083 13.9281 98.8791 14.2795 98.5028 14.5728C98.1265 14.866 97.7114 15.0929 97.2576 15.2534C96.8094 15.4139 96.339 15.4941 95.8465 15.4941C95.116 15.4941 94.4686 15.3835 93.9041 15.1621C93.3397 14.9408 92.8638 14.6281 92.4764 14.2241C91.685 13.3996 91.2894 12.2762 91.2894 10.854C91.2894 10.1623 91.4056 9.51758 91.638 8.91992C91.876 8.31673 92.1997 7.79378 92.6092 7.35107C93.0187 6.90837 93.5002 6.55973 94.0535 6.30518C94.6069 6.05062 95.2046 5.92334 95.8465 5.92334C96.422 5.92334 96.9643 6.03678 97.4735 6.26367C97.9826 6.48503 98.4336 6.79215 98.8265 7.18506C99.2194 7.5835 99.5431 8.05111 99.7977 8.58789C100.052 9.12467 100.213 9.70573 100.279 10.3311L93.0906 11.4019C93.1294 11.7948 93.2262 12.1489 93.3812 12.4644C93.5417 12.7743 93.7409 13.0371 93.9788 13.2529C94.4713 13.6956 95.0939 13.917 95.8465 13.917ZM93.1404 9.86621L98.1375 9.26025L98.0877 9.10254C97.8774 8.55469 97.5869 8.12581 97.2161 7.81592C96.8509 7.50602 96.3944 7.35107 95.8465 7.35107C95.6141 7.35107 95.3595 7.39258 95.0828 7.47559C94.8061 7.55306 94.5377 7.68864 94.2777 7.88232C94.0176 8.07601 93.7824 8.3361 93.5721 8.6626C93.3673 8.98356 93.2235 9.38477 93.1404 9.86621ZM110.173 9.39307L108.538 10.0073C108.533 9.53695 108.466 9.15511 108.339 8.86182C108.217 8.56852 108.054 8.34717 107.849 8.19775C107.655 8.05387 107.437 7.98747 107.193 7.99854C107.033 8.0262 106.87 8.08984 106.704 8.18945C106.532 8.2946 106.352 8.43294 106.164 8.60449C105.981 8.77604 105.799 8.96696 105.616 9.17725C105.522 9.28239 105.431 9.3903 105.342 9.50098C105.254 9.61165 105.165 9.72233 105.077 9.83301C104.905 10.0544 104.742 10.2785 104.587 10.5054C104.432 10.7267 104.294 10.9287 104.172 11.1113C104.177 11.3382 104.183 11.5983 104.188 11.8916C104.194 12.1794 104.2 12.4644 104.205 12.7466C104.216 13.0233 104.224 13.2585 104.23 13.4521C104.241 13.8008 104.252 14.1162 104.263 14.3984C104.274 14.6751 104.288 14.8993 104.305 15.0708L102.52 15.2949L102.354 10.6382C102.343 10.3228 102.332 9.98519 102.321 9.62549C102.31 9.26025 102.299 8.91715 102.288 8.59619C102.277 8.26969 102.268 8.01237 102.263 7.82422C102.241 7.04395 102.224 6.45736 102.213 6.06445L104.105 6.03125C104.111 6.2028 104.114 6.37435 104.114 6.5459C104.114 6.71191 104.117 6.88346 104.122 7.06055C104.122 7.23763 104.122 7.40918 104.122 7.5752C104.122 7.73568 104.125 7.88786 104.13 8.03174C104.136 8.20329 104.139 8.37484 104.139 8.54639C104.139 8.7124 104.139 8.87565 104.139 9.03613C104.299 8.78158 104.496 8.50212 104.728 8.19775C104.96 7.89339 105.221 7.60563 105.508 7.33447C105.802 7.06331 106.12 6.82812 106.463 6.62891C106.806 6.42415 107.174 6.29688 107.567 6.24707C107.999 6.22493 108.402 6.31901 108.779 6.5293C108.934 6.61784 109.086 6.73682 109.235 6.88623C109.39 7.03011 109.534 7.21549 109.667 7.44238C109.794 7.6748 109.902 7.9515 109.991 8.27246C110.079 8.58789 110.14 8.96143 110.173 9.39307ZM126.11 13.3525L127.231 6.23047L129.074 6.29688L127.422 14.9712L124.956 15.0376L123.495 8.93652L121.487 14.7471L119.005 14.938L117.394 6.33008L119.104 6.19727L120.366 13.1699L122.831 6.19727L124.425 6.29688L126.11 13.3525ZM131.265 15.104L131.124 2.3042L133.033 2.23779L132.983 7.28467C133.287 6.95264 133.611 6.69255 133.954 6.50439C134.297 6.31071 134.618 6.16406 134.917 6.06445C135.26 5.95378 135.6 5.87907 135.938 5.84033C137.189 5.84033 138.19 6.26921 138.943 7.12695C139.308 7.54199 139.596 8.04834 139.806 8.646C140.022 9.23812 140.144 9.90771 140.171 10.6548C140.171 11.0477 140.166 11.4489 140.155 11.8584C140.149 12.2679 140.133 12.6691 140.105 13.062C140.072 13.4549 140.027 13.8285 139.972 14.1826C139.922 14.5368 139.853 14.855 139.765 15.1372L137.872 15.0044C138.033 14.4731 138.146 13.9557 138.212 13.4521C138.284 12.9486 138.334 12.4976 138.362 12.0991C138.384 11.6343 138.392 11.1916 138.387 10.771C138.359 10.1789 138.257 9.67529 138.08 9.26025C137.908 8.84521 137.692 8.50488 137.432 8.23926C137.178 7.97917 136.893 7.79102 136.577 7.6748C136.267 7.55306 135.963 7.49219 135.664 7.49219C135.354 7.51432 135.036 7.60563 134.709 7.76611C134.433 7.89893 134.137 8.10645 133.821 8.38867C133.506 8.66536 133.213 9.05827 132.941 9.56738L132.892 15.0708L131.265 15.104ZM150.987 10.6548C150.987 11.3521 150.871 11.9967 150.638 12.5889C150.406 13.181 150.088 13.6956 149.684 14.1328C149.28 14.57 148.807 14.9103 148.264 15.1538C147.722 15.4028 147.144 15.5273 146.529 15.5273C145.273 15.5273 144.23 15.0791 143.4 14.1826C142.996 13.7565 142.678 13.2446 142.445 12.647C142.213 12.0493 142.097 11.3853 142.097 10.6548C142.097 9.91878 142.213 9.25195 142.445 8.6543C142.678 8.05111 142.996 7.53646 143.4 7.11035C143.798 6.68424 144.266 6.35498 144.803 6.12256C145.34 5.89014 145.915 5.77393 146.529 5.77393C147.144 5.77393 147.722 5.89844 148.264 6.14746C148.807 6.39095 149.28 6.72852 149.684 7.16016C150.088 7.59733 150.406 8.11475 150.638 8.7124C150.871 9.30452 150.987 9.95199 150.987 10.6548ZM149.235 10.6382C149.235 10.2397 149.186 9.83577 149.086 9.42627C148.986 9.01676 148.829 8.65153 148.613 8.33057C148.397 8.00407 148.118 7.74121 147.775 7.54199C147.431 7.33724 147.016 7.23486 146.529 7.23486C146.059 7.23486 145.655 7.33724 145.318 7.54199C144.98 7.74121 144.703 8.00407 144.487 8.33057C144.272 8.65153 144.114 9.01676 144.014 9.42627C143.915 9.83577 143.865 10.2397 143.865 10.6382C143.865 11.0366 143.917 11.4378 144.023 11.8418C144.133 12.2402 144.299 12.6027 144.521 12.9292C144.742 13.2502 145.019 13.5158 145.351 13.7261C145.688 13.9308 146.081 14.0332 146.529 14.0332C147 14.0332 147.404 13.9308 147.741 13.7261C148.084 13.5158 148.367 13.2502 148.588 12.9292C148.809 12.6027 148.973 12.2402 149.078 11.8418C149.183 11.4378 149.235 11.0366 149.235 10.6382Z" fill="white"/>
<path d="M0.373909 15.7183H151.618V16.1333H0.373909V15.7183Z" fill="white"/>
</svg>
