<svg width="340" height="14" viewBox="0 0 340 14" fill="none" xmlns="http://www.w3.org/2000/svg">
<path d="M7.12431 7.58057C7.13506 7.9637 7.07418 8.28955 6.9417 8.55811C6.80921 8.83024 6.62838 9.05941 6.39922 9.24561C6.17363 9.42822 5.91045 9.57682 5.60966 9.69141C5.3053 9.80241 4.98841 9.88835 4.65898 9.94922C4.32597 10.0065 3.99118 10.0441 3.65459 10.062C3.318 10.0799 3.00289 10.0889 2.70927 10.0889C2.41207 10.0889 2.08086 10.0799 1.71562 10.062C1.35397 10.0477 0.956507 10.0226 0.523239 9.98682L0.292282 2.1665C0.664678 2.09847 1.02633 2.04834 1.37724 2.01611C1.72815 1.98031 2.04147 1.95524 2.31718 1.94092C2.63945 1.92301 2.94381 1.91764 3.23027 1.9248C3.50599 1.92839 3.77991 1.9445 4.05205 1.97314C4.32776 1.99821 4.59095 2.04118 4.8416 2.10205C5.09583 2.15934 5.33216 2.23991 5.55058 2.34375C5.76543 2.44401 5.95521 2.5765 6.11992 2.74121C6.28105 2.90234 6.40817 3.09749 6.50127 3.32666C6.59437 3.55225 6.64091 3.81901 6.64091 4.12695C6.64091 4.52799 6.56751 4.87174 6.4207 5.1582C6.27389 5.44108 6.08232 5.67562 5.84599 5.86182C6.13245 5.9585 6.36162 6.09635 6.53349 6.27539C6.70895 6.45085 6.84502 6.64779 6.9417 6.86621C7.0348 7.08105 7.09567 7.31917 7.12431 7.58057ZM3.25175 2.90234C3.08704 2.90234 2.90442 2.90771 2.7039 2.91846C2.53561 2.92562 2.34225 2.93994 2.12383 2.96143C1.90898 2.98291 1.67981 3.01156 1.43633 3.04736L1.52226 5.78662C1.83021 5.77946 2.1095 5.77051 2.36015 5.75977C2.61438 5.74544 2.83281 5.73291 3.01543 5.72217C3.12285 5.71501 3.2249 5.70785 3.32158 5.70068C3.41826 5.69352 3.50778 5.68636 3.59013 5.6792C3.85511 5.66488 4.10755 5.62191 4.34746 5.55029C4.59095 5.4751 4.80221 5.37305 4.98125 5.24414C5.16028 5.11523 5.29814 4.95768 5.39482 4.77148C5.49508 4.58529 5.53268 4.37044 5.50761 4.12695C5.48613 3.94434 5.43779 3.78678 5.36259 3.6543C5.2122 3.3929 4.98304 3.20133 4.67509 3.07959C4.53545 3.02588 4.38147 2.98112 4.21318 2.94531C4.05205 2.91667 3.88912 2.90055 3.72441 2.89697C3.5597 2.88981 3.40215 2.8916 3.25175 2.90234ZM4.27226 6.54395C4.23646 6.54753 4.17021 6.5529 4.07353 6.56006C3.97685 6.56722 3.88375 6.57438 3.79424 6.58154C3.70472 6.5887 3.65101 6.59229 3.6331 6.59229L2.99931 6.64062C2.80595 6.65495 2.58395 6.67106 2.3333 6.68896C2.08265 6.70329 1.82304 6.71761 1.55449 6.73193L1.63506 9.11133C1.68519 9.11491 1.73532 9.11849 1.78545 9.12207C1.83558 9.12207 1.88392 9.12207 1.93047 9.12207H2.21513C2.29749 9.12207 2.39238 9.12207 2.4998 9.12207C2.60722 9.12207 2.72539 9.12028 2.85429 9.1167C3.10853 9.1167 3.37529 9.10417 3.65459 9.0791C3.93746 9.05404 4.22034 9.01286 4.50322 8.95557C4.78252 8.89469 5.03496 8.80876 5.26054 8.69775C5.48255 8.58317 5.6598 8.43815 5.79228 8.2627C5.92835 8.08366 5.99101 7.85986 5.98027 7.59131C5.94804 7.39795 5.86569 7.22428 5.7332 7.07031C5.59355 6.91276 5.40377 6.78564 5.16386 6.68896C4.92754 6.59229 4.63034 6.54395 4.27226 6.54395ZM11.1202 9.18652C11.5177 9.18652 11.8829 9.06836 12.2159 8.83203C12.5489 8.59212 12.7655 8.25911 12.8658 7.83301L13.9024 8.04248C13.8022 8.36833 13.6607 8.66374 13.4781 8.92871C13.2955 9.19368 13.0824 9.42106 12.8389 9.61084C12.5955 9.80062 12.3269 9.94743 12.0333 10.0513C11.7432 10.1551 11.4389 10.207 11.1202 10.207C10.6475 10.207 10.2286 10.1354 9.86336 9.99219C9.49812 9.84896 9.19018 9.64665 8.93953 9.38525C8.42748 8.85173 8.17146 8.12484 8.17146 7.20459C8.17146 6.757 8.24666 6.33984 8.39705 5.95312C8.55102 5.56283 8.76049 5.22445 9.02547 4.93799C9.29044 4.65153 9.60196 4.42594 9.96004 4.26123C10.3181 4.09652 10.7048 4.01416 11.1202 4.01416C11.4926 4.01416 11.8435 4.08757 12.1729 4.23438C12.5024 4.3776 12.7942 4.57633 13.0484 4.83057C13.3026 5.08838 13.5121 5.39095 13.6768 5.73828C13.8415 6.08561 13.9454 6.46159 13.9884 6.86621L9.33699 7.55908C9.36205 7.81331 9.42472 8.04248 9.52498 8.24658C9.62882 8.4471 9.75773 8.61719 9.9117 8.75684C10.2304 9.04329 10.6332 9.18652 11.1202 9.18652ZM9.36922 6.56543L12.6026 6.17334L12.5704 6.07129C12.4343 5.7168 12.2463 5.43929 12.0064 5.23877C11.7701 5.03825 11.4747 4.93799 11.1202 4.93799C10.9698 4.93799 10.8051 4.96484 10.6261 5.01855C10.447 5.06868 10.2734 5.15641 10.1051 5.28174C9.93676 5.40706 9.78458 5.57536 9.64851 5.78662C9.51603 5.9943 9.42293 6.25391 9.36922 6.56543ZM20.8524 5.63086L20.8631 5.65234L19.9715 6.19482L19.9608 6.1626C19.7746 5.79736 19.5132 5.5109 19.1766 5.30322C18.84 5.09196 18.4676 4.98633 18.0594 4.98633C17.7658 4.98633 17.4901 5.04183 17.2323 5.15283C16.978 5.26383 16.756 5.41602 16.5663 5.60938C16.3729 5.80273 16.2207 6.03011 16.1097 6.2915C15.9987 6.54932 15.9432 6.82503 15.9432 7.11865C15.9432 7.40869 15.9987 7.68262 16.1097 7.94043C16.2207 8.19824 16.3729 8.42383 16.5663 8.61719C16.756 8.81055 16.978 8.96273 17.2323 9.07373C17.4901 9.18473 17.7658 9.24023 18.0594 9.24023C18.4318 9.24023 18.7845 9.14355 19.1175 8.9502C19.4505 8.75684 19.7101 8.50081 19.8963 8.18213L19.9178 8.1499L20.8524 8.68164L20.8417 8.71387C20.702 8.94661 20.5319 9.15609 20.3314 9.34229C20.1345 9.52848 19.9142 9.68962 19.6708 9.82568C19.173 10.1014 18.6359 10.2393 18.0594 10.2393C17.6548 10.2393 17.2645 10.1605 16.8885 10.0029C16.5126 9.84538 16.176 9.62695 15.8788 9.34766C15.5851 9.06836 15.3488 8.73893 15.1698 8.35938C14.9907 7.97982 14.9012 7.56624 14.9012 7.11865C14.9012 6.8501 14.9388 6.58512 15.014 6.32373C15.1644 5.79378 15.4312 5.33366 15.8143 4.94336C15.9074 4.8431 16.0077 4.75179 16.1151 4.66943C16.2225 4.5835 16.3335 4.50472 16.4481 4.43311C16.6808 4.29346 16.9333 4.18424 17.2054 4.10547C17.4776 4.02311 17.7622 3.98193 18.0594 3.98193C18.6753 3.98193 19.2321 4.12695 19.7298 4.41699C20.2204 4.70703 20.5946 5.11165 20.8524 5.63086ZM27.4103 10.1963L26.3576 10.019L26.4328 9.26172C25.9959 9.54102 25.5662 9.74333 25.1437 9.86865C24.7247 9.99398 24.3327 10.0566 23.9674 10.0566C23.7096 10.0566 23.459 10.0226 23.2155 9.95459C22.9756 9.89014 22.7643 9.78809 22.5817 9.64844C22.3955 9.51237 22.2451 9.3387 22.1305 9.12744C22.0195 8.9126 21.964 8.66016 21.964 8.37012C21.964 8.08008 22.007 7.82048 22.0929 7.59131C22.1788 7.36214 22.297 7.15983 22.4474 6.98438C22.5978 6.80892 22.775 6.65853 22.9791 6.5332C23.1832 6.40788 23.4035 6.30583 23.6398 6.22705C23.8725 6.14827 24.1178 6.09098 24.3756 6.05518C24.6334 6.01579 24.8895 5.99609 25.1437 5.99609C25.38 5.99609 25.6002 6.00505 25.8043 6.02295C26.0084 6.04085 26.1893 6.06413 26.3468 6.09277C26.2824 5.83854 26.1946 5.60042 26.0836 5.37842C25.9762 5.15641 25.833 4.97738 25.6539 4.84131C25.4785 4.70166 25.2511 4.63184 24.9718 4.63184C24.8322 4.63184 24.6728 4.65332 24.4938 4.69629C24.3147 4.73568 24.1178 4.80908 23.903 4.9165C23.6881 5.02393 23.4536 5.17253 23.1994 5.3623C22.9451 5.5485 22.673 5.78841 22.3829 6.08203L21.733 5.29248C22.0768 4.97021 22.4062 4.70703 22.7213 4.50293C23.0364 4.29883 23.3336 4.1377 23.6129 4.01953C23.8886 3.90495 24.1447 3.82617 24.381 3.7832C24.6209 3.74023 24.8357 3.71875 25.0255 3.71875C25.3585 3.71875 25.6522 3.77425 25.9064 3.88525C26.1642 3.99626 26.3916 4.15023 26.5885 4.34717C26.7855 4.54053 26.9502 4.76969 27.0827 5.03467C27.2116 5.2889 27.3208 5.57178 27.4103 5.8833C27.4962 6.18766 27.5571 6.50277 27.5929 6.82861C27.6323 7.15446 27.652 7.47852 27.652 7.80078C27.652 8.14453 27.6323 8.51335 27.5929 8.90723C27.5535 9.30111 27.4926 9.73079 27.4103 10.1963ZM26.5079 8.06396C26.5151 7.88493 26.5205 7.70768 26.5241 7.53223C26.5276 7.35677 26.5187 7.17415 26.4972 6.98438C26.3217 6.93066 26.1373 6.8877 25.944 6.85547C25.7506 6.82324 25.5573 6.80713 25.3639 6.80713C25.0416 6.80713 24.7283 6.84473 24.424 6.91992C24.1232 6.99512 23.8636 7.10433 23.6452 7.24756C23.4267 7.39079 23.262 7.56624 23.151 7.77393C23.0436 7.98161 23.0221 8.21794 23.0866 8.48291C23.1367 8.69775 23.2334 8.84814 23.3766 8.93408C23.5234 9.02002 23.6989 9.06299 23.903 9.06299C24.1679 9.06299 24.4651 9.00749 24.7946 8.89648C25.124 8.7819 25.4409 8.64583 25.7453 8.48828C26.0532 8.33073 26.3074 8.18929 26.5079 8.06396ZM34.6181 10.0459L33.3935 10.0674L33.372 8.52588C33.2538 8.73714 33.1195 8.93766 32.9692 9.12744C32.8188 9.31364 32.6558 9.47656 32.4804 9.61621C32.3049 9.75944 32.1169 9.87223 31.9164 9.95459C31.7195 10.0369 31.5118 10.0745 31.2934 10.0674C30.9675 10.0566 30.6918 9.99577 30.4662 9.88477C30.2371 9.77376 30.0419 9.62516 29.8808 9.43896C29.7232 9.25277 29.5979 9.03971 29.5048 8.7998C29.4045 8.54915 29.3311 8.29492 29.2846 8.03711C29.2345 7.76855 29.2004 7.49463 29.1825 7.21533C29.1682 6.93245 29.1611 6.65853 29.1611 6.39355C29.1611 6.02116 29.1772 5.64518 29.2094 5.26562C29.2416 4.88249 29.2882 4.49219 29.349 4.09473L30.4501 4.12695C30.3928 4.57096 30.3534 4.97021 30.3319 5.32471C30.314 5.6792 30.3051 5.99072 30.3051 6.25928C30.3051 6.32015 30.3051 6.38997 30.3051 6.46875C30.3051 6.54395 30.3069 6.62809 30.3105 6.72119C30.314 6.90739 30.3266 7.10612 30.3481 7.31738C30.3731 7.52507 30.4107 7.73096 30.4609 7.93506C30.5074 8.132 30.579 8.31283 30.6757 8.47754C30.7688 8.63867 30.8834 8.76221 31.0194 8.84814C31.1591 8.93408 31.331 8.96273 31.5351 8.93408C31.8072 8.89827 32.0955 8.7085 32.3998 8.36475C32.7006 8.021 33.0139 7.49821 33.3398 6.79639L33.3129 5.43213C33.3093 5.26383 33.3057 5.11523 33.3022 4.98633C33.2986 4.85384 33.295 4.74284 33.2914 4.65332C33.2843 4.43848 33.2789 4.29167 33.2753 4.21289L34.4301 4.08398L34.4892 5.74902C34.4963 5.99967 34.5035 6.236 34.5107 6.45801C34.5178 6.68001 34.525 6.88949 34.5321 7.08643C34.5393 7.28695 34.5465 7.50716 34.5536 7.74707C34.5608 7.9834 34.568 8.2054 34.5751 8.41309C34.5823 8.62077 34.5876 8.78548 34.5912 8.90723C34.5984 9.16146 34.6038 9.38346 34.6073 9.57324C34.6109 9.76302 34.6145 9.92057 34.6181 10.0459ZM41.2941 8.50439C41.2941 8.84456 41.2261 9.13102 41.09 9.36377C40.954 9.59294 40.7696 9.78092 40.5368 9.92773C40.3076 10.071 40.0427 10.1766 39.7419 10.2446C39.4411 10.3162 39.1296 10.3592 38.8073 10.3735C38.4707 10.3664 38.1377 10.3324 37.8083 10.2715C37.5183 10.2214 37.1978 10.1283 36.8469 9.99219C36.496 9.85612 36.1809 9.67887 35.9016 9.46045L36.4226 8.64404C36.6195 8.74788 36.82 8.84814 37.0241 8.94482C37.2318 9.0415 37.4431 9.12565 37.6579 9.19727C37.8727 9.27246 38.093 9.33154 38.3186 9.37451C38.5441 9.41748 38.7769 9.43896 39.0168 9.43896C39.357 9.43896 39.6184 9.38346 39.801 9.27246C39.9836 9.15788 40.1035 9.01823 40.1608 8.85352C40.2253 8.63867 40.1626 8.43278 39.9728 8.23584C39.937 8.20003 39.8959 8.16781 39.8493 8.13916C39.8028 8.10693 39.7508 8.0765 39.6936 8.04785C39.579 7.99414 39.4393 7.94938 39.2746 7.91357C39.1099 7.87777 38.9147 7.85449 38.6892 7.84375C38.3669 7.82943 38.0554 7.7972 37.7546 7.74707C37.4574 7.69336 37.1924 7.611 36.9597 7.5C36.7233 7.389 36.5282 7.24398 36.3742 7.06494C36.2238 6.88232 36.1325 6.65495 36.1003 6.38281C36.0752 6.13574 36.0931 5.89941 36.154 5.67383C36.2686 5.26204 36.5049 4.92367 36.863 4.65869C36.9525 4.59782 37.0438 4.54053 37.1369 4.48682C37.2336 4.43311 37.3338 4.38477 37.4377 4.3418C37.6454 4.25944 37.8638 4.19857 38.093 4.15918C38.3257 4.11621 38.5602 4.09473 38.7966 4.09473C38.9362 4.09473 39.1009 4.10189 39.2907 4.11621C39.4805 4.13053 39.6792 4.15918 39.8869 4.20215C40.0946 4.24512 40.3041 4.30778 40.5153 4.39014C40.7266 4.46891 40.9235 4.57454 41.1061 4.70703L40.7355 5.68994C40.4992 5.56462 40.2736 5.46794 40.0588 5.3999C39.8475 5.32829 39.6595 5.27279 39.4948 5.2334C39.3981 5.21191 39.3033 5.19401 39.2102 5.17969C39.1206 5.16536 39.0347 5.15462 38.9523 5.14746C38.3902 5.11523 37.9515 5.17432 37.6364 5.32471C37.3249 5.4751 37.1691 5.70247 37.1691 6.00684C37.1691 6.22168 37.2282 6.37923 37.3464 6.47949C37.4645 6.57617 37.6257 6.646 37.8298 6.68896C37.9479 6.71403 38.0983 6.73551 38.281 6.75342C38.4672 6.76774 38.6605 6.78385 38.861 6.80176C39.0651 6.81966 39.2495 6.84115 39.4143 6.86621C39.7652 6.91992 40.0606 7.00049 40.3005 7.10791C40.5404 7.21533 40.7338 7.34066 40.8806 7.48389C41.0274 7.62712 41.133 7.78646 41.1975 7.96191C41.2619 8.13379 41.2941 8.31462 41.2941 8.50439ZM45.2524 9.18652C45.6499 9.18652 46.0151 9.06836 46.3481 8.83203C46.6811 8.59212 46.8978 8.25911 46.998 7.83301L48.0346 8.04248C47.9344 8.36833 47.7929 8.66374 47.6103 8.92871C47.4277 9.19368 47.2147 9.42106 46.9712 9.61084C46.7277 9.80062 46.4591 9.94743 46.1655 10.0513C45.8755 10.1551 45.5711 10.207 45.2524 10.207C44.7798 10.207 44.3608 10.1354 43.9956 9.99219C43.6303 9.84896 43.3224 9.64665 43.0718 9.38525C42.5597 8.85173 42.3037 8.12484 42.3037 7.20459C42.3037 6.757 42.3789 6.33984 42.5293 5.95312C42.6832 5.56283 42.8927 5.22445 43.1577 4.93799C43.4227 4.65153 43.7342 4.42594 44.0923 4.26123C44.4503 4.09652 44.8371 4.01416 45.2524 4.01416C45.6248 4.01416 45.9757 4.08757 46.3052 4.23438C46.6346 4.3776 46.9264 4.57633 47.1806 4.83057C47.4349 5.08838 47.6443 5.39095 47.8091 5.73828C47.9738 6.08561 48.0776 6.46159 48.1206 6.86621L43.4692 7.55908C43.4943 7.81331 43.5569 8.04248 43.6572 8.24658C43.761 8.4471 43.89 8.61719 44.0439 8.75684C44.3626 9.04329 44.7654 9.18652 45.2524 9.18652ZM43.5014 6.56543L46.7348 6.17334L46.7026 6.07129C46.5665 5.7168 46.3786 5.43929 46.1386 5.23877C45.9023 5.03825 45.6069 4.93799 45.2524 4.93799C45.102 4.93799 44.9373 4.96484 44.7583 5.01855C44.5792 5.06868 44.4056 5.15641 44.2373 5.28174C44.069 5.40706 43.9168 5.57536 43.7807 5.78662C43.6483 5.9943 43.5552 6.25391 43.5014 6.56543ZM54.8501 2.521C54.8501 2.72868 54.7731 2.90771 54.6192 3.05811C54.4688 3.20492 54.288 3.27832 54.0767 3.27832C53.869 3.27832 53.69 3.20492 53.5396 3.05811C53.3928 2.90771 53.3194 2.72868 53.3194 2.521C53.3194 2.30973 53.3928 2.12891 53.5396 1.97852C53.69 1.82454 53.869 1.74756 54.0767 1.74756C54.288 1.74756 54.4688 1.82454 54.6192 1.97852C54.7731 2.12891 54.8501 2.30973 54.8501 2.521ZM53.4859 4.45459L54.5977 4.41162L54.544 6.98975C54.5261 7.69873 54.5153 8.25553 54.5118 8.66016C54.501 9.1543 54.4956 9.54281 54.4956 9.82568H53.3946C53.3981 9.63232 53.4017 9.42106 53.4053 9.19189C53.4125 8.95915 53.4178 8.71029 53.4214 8.44531C53.4286 7.9834 53.4393 7.42301 53.4536 6.76416L53.4859 4.45459ZM55.8167 5.24951V4.22363L57.095 4.23438C57.1344 3.8584 57.2096 3.49674 57.3206 3.14941C57.4352 2.7985 57.5963 2.48877 57.804 2.22021C58.0081 1.95166 58.2659 1.73682 58.5775 1.57568C58.889 1.41455 59.2632 1.33398 59.7 1.33398C59.9363 1.33398 60.1852 1.37516 60.4466 1.45752C60.7116 1.5363 60.973 1.68848 61.2308 1.91406L60.699 2.81641C60.5057 2.68034 60.3177 2.58545 60.1351 2.53174C59.9525 2.47445 59.7895 2.43864 59.6463 2.42432C59.478 2.40641 59.3205 2.41178 59.1736 2.44043C59.0304 2.47624 58.9033 2.53353 58.7923 2.6123C58.6813 2.6875 58.5846 2.79492 58.5023 2.93457C58.3447 3.19954 58.2337 3.63639 58.1693 4.24512L60.4466 4.25586L60.3284 5.31396L58.1048 5.28174V5.75439C58.1012 5.99072 58.0994 6.23063 58.0994 6.47412C58.0994 6.71403 58.0994 6.95752 58.0994 7.20459L58.0941 8.60645C58.0941 8.85352 58.0923 9.10417 58.0887 9.3584C58.0887 9.60905 58.0869 9.85254 58.0833 10.0889L56.9715 10.1104C56.9787 9.72005 56.984 9.3584 56.9876 9.02539C56.9912 8.6888 56.9948 8.38086 56.9984 8.10156C57.0019 7.82227 57.0055 7.56803 57.0091 7.33887C57.0127 7.10612 57.0163 6.89665 57.0198 6.71045L57.036 5.6416V5.271L55.8167 5.24951ZM66.6659 4.36865L66.7089 2.01611L67.7777 1.94629L67.7401 4.34717L69.8241 4.27734L69.7435 5.28174L67.7294 5.33545L67.6864 10.019L66.5531 10.0459L66.6444 5.36768L64.786 5.41064L64.8075 4.42236L66.6659 4.36865ZM70.9626 9.95459L70.8712 1.67236L72.1066 1.62939L72.0744 4.89502C72.2713 4.68018 72.4808 4.51188 72.7028 4.39014C72.9248 4.26481 73.1325 4.16992 73.3258 4.10547C73.5478 4.03385 73.7681 3.98551 73.9865 3.96045C74.7957 3.96045 75.4438 4.23796 75.9308 4.79297C76.1671 5.06152 76.3533 5.38916 76.4894 5.77588C76.6291 6.15902 76.7078 6.59229 76.7257 7.07568C76.7257 7.32992 76.7222 7.58952 76.715 7.85449C76.7114 8.11947 76.7007 8.37907 76.6828 8.6333C76.6613 8.88753 76.6326 9.12923 76.5968 9.3584C76.5646 9.58757 76.5198 9.79346 76.4626 9.97607L75.2379 9.89014C75.3418 9.54639 75.4152 9.21159 75.4582 8.88574C75.5047 8.5599 75.5369 8.26807 75.5548 8.01025C75.5692 7.70947 75.5745 7.42301 75.571 7.15088C75.553 6.76774 75.4868 6.44189 75.3722 6.17334C75.2612 5.90479 75.1216 5.68457 74.9533 5.5127C74.7886 5.3444 74.6042 5.22266 74.4001 5.14746C74.1995 5.06868 74.0026 5.0293 73.8092 5.0293C73.6087 5.04362 73.4028 5.1027 73.1916 5.20654C73.0125 5.29248 72.821 5.42676 72.6169 5.60938C72.4128 5.78841 72.223 6.04264 72.0475 6.37207L72.0153 9.93311L70.9626 9.95459ZM80.9096 9.18652C81.3071 9.18652 81.6723 9.06836 82.0053 8.83203C82.3383 8.59212 82.555 8.25911 82.6552 7.83301L83.6918 8.04248C83.5916 8.36833 83.4501 8.66374 83.2675 8.92871C83.0849 9.19368 82.8718 9.42106 82.6284 9.61084C82.3849 9.80062 82.1163 9.94743 81.8227 10.0513C81.5327 10.1551 81.2283 10.207 80.9096 10.207C80.437 10.207 80.018 10.1354 79.6528 9.99219C79.2875 9.84896 78.9796 9.64665 78.7289 9.38525C78.2169 8.85173 77.9609 8.12484 77.9609 7.20459C77.9609 6.757 78.0361 6.33984 78.1865 5.95312C78.3404 5.56283 78.5499 5.22445 78.8149 4.93799C79.0799 4.65153 79.3914 4.42594 79.7495 4.26123C80.1075 4.09652 80.4942 4.01416 80.9096 4.01416C81.282 4.01416 81.6329 4.08757 81.9623 4.23438C82.2918 4.3776 82.5836 4.57633 82.8378 4.83057C83.0921 5.08838 83.3015 5.39095 83.4662 5.73828C83.631 6.08561 83.7348 6.46159 83.7778 6.86621L79.1264 7.55908C79.1515 7.81331 79.2141 8.04248 79.3144 8.24658C79.4182 8.4471 79.5471 8.61719 79.7011 8.75684C80.0198 9.04329 80.4226 9.18652 80.9096 9.18652ZM79.1586 6.56543L82.392 6.17334L82.3598 6.07129C82.2237 5.7168 82.0357 5.43929 81.7958 5.23877C81.5595 5.03825 81.2641 4.93799 80.9096 4.93799C80.7592 4.93799 80.5945 4.96484 80.4155 5.01855C80.2364 5.06868 80.0628 5.15641 79.8945 5.28174C79.7262 5.40706 79.574 5.57536 79.4379 5.78662C79.3054 5.9943 79.2123 6.25391 79.1586 6.56543ZM94.6216 5.63086L94.6323 5.65234L93.7407 6.19482L93.73 6.1626C93.5438 5.79736 93.2824 5.5109 92.9458 5.30322C92.6092 5.09196 92.2368 4.98633 91.8286 4.98633C91.535 4.98633 91.2593 5.04183 91.0015 5.15283C90.7472 5.26383 90.5252 5.41602 90.3354 5.60938C90.1421 5.80273 89.9899 6.03011 89.8789 6.2915C89.7679 6.54932 89.7124 6.82503 89.7124 7.11865C89.7124 7.40869 89.7679 7.68262 89.8789 7.94043C89.9899 8.19824 90.1421 8.42383 90.3354 8.61719C90.5252 8.81055 90.7472 8.96273 91.0015 9.07373C91.2593 9.18473 91.535 9.24023 91.8286 9.24023C92.201 9.24023 92.5537 9.14355 92.8867 8.9502C93.2197 8.75684 93.4793 8.50081 93.6655 8.18213L93.687 8.1499L94.6216 8.68164L94.6108 8.71387C94.4712 8.94661 94.3011 9.15609 94.1006 9.34229C93.9036 9.52848 93.6834 9.68962 93.4399 9.82568C92.9422 10.1014 92.4051 10.2393 91.8286 10.2393C91.424 10.2393 91.0337 10.1605 90.6577 10.0029C90.2817 9.84538 89.9451 9.62695 89.6479 9.34766C89.3543 9.06836 89.118 8.73893 88.939 8.35938C88.7599 7.97982 88.6704 7.56624 88.6704 7.11865C88.6704 6.8501 88.708 6.58512 88.7832 6.32373C88.9336 5.79378 89.2004 5.33366 89.5835 4.94336C89.6766 4.8431 89.7769 4.75179 89.8843 4.66943C89.9917 4.5835 90.1027 4.50472 90.2173 4.43311C90.45 4.29346 90.7025 4.18424 90.9746 4.10547C91.2467 4.02311 91.5314 3.98193 91.8286 3.98193C92.4445 3.98193 93.0013 4.12695 93.499 4.41699C93.9896 4.70703 94.3638 5.11165 94.6216 5.63086ZM101.335 7.07568C101.335 7.52686 101.26 7.94401 101.11 8.32715C100.959 8.71029 100.753 9.04329 100.492 9.32617C100.231 9.60905 99.9244 9.82926 99.5735 9.98682C99.2226 10.1479 98.8484 10.2285 98.451 10.2285C97.6381 10.2285 96.9632 9.93848 96.426 9.3584C96.1647 9.08268 95.9588 8.75146 95.8084 8.36475C95.658 7.97803 95.5828 7.54834 95.5828 7.07568C95.5828 6.59945 95.658 6.16797 95.8084 5.78125C95.9588 5.39095 96.1647 5.05794 96.426 4.78223C96.6839 4.50651 96.9864 4.29346 97.3338 4.14307C97.6811 3.99268 98.0535 3.91748 98.451 3.91748C98.8484 3.91748 99.2226 3.99805 99.5735 4.15918C99.9244 4.31673 100.231 4.53516 100.492 4.81445C100.753 5.09733 100.959 5.43213 101.11 5.81885C101.26 6.20199 101.335 6.62093 101.335 7.07568ZM100.202 7.06494C100.202 6.80713 100.17 6.54574 100.105 6.28076C100.041 6.01579 99.9387 5.77946 99.7991 5.57178C99.6594 5.36051 99.4786 5.19043 99.2566 5.06152C99.0346 4.92904 98.7661 4.86279 98.451 4.86279C98.1466 4.86279 97.8852 4.92904 97.6668 5.06152C97.4483 5.19043 97.2693 5.36051 97.1297 5.57178C96.99 5.77946 96.888 6.01579 96.8235 6.28076C96.7591 6.54574 96.7268 6.80713 96.7268 7.06494C96.7268 7.32275 96.7608 7.58236 96.8289 7.84375C96.9005 8.10156 97.0079 8.3361 97.1511 8.54736C97.2944 8.75505 97.4734 8.92692 97.6883 9.06299C97.9067 9.19548 98.1609 9.26172 98.451 9.26172C98.7553 9.26172 99.0167 9.19548 99.2351 9.06299C99.4571 8.92692 99.6398 8.75505 99.783 8.54736C99.9262 8.3361 100.032 8.10156 100.1 7.84375C100.168 7.58236 100.202 7.32275 100.202 7.06494ZM104.993 8.89111L106.701 4.08398L107.807 4.23438L105.696 9.89014L104.182 9.86865L102.296 4.44385L103.387 4.27734L104.993 8.89111ZM111.615 9.18652C112.013 9.18652 112.378 9.06836 112.711 8.83203C113.044 8.59212 113.26 8.25911 113.361 7.83301L114.397 8.04248C114.297 8.36833 114.156 8.66374 113.973 8.92871C113.79 9.19368 113.577 9.42106 113.334 9.61084C113.09 9.80062 112.822 9.94743 112.528 10.0513C112.238 10.1551 111.934 10.207 111.615 10.207C111.142 10.207 110.723 10.1354 110.358 9.99219C109.993 9.84896 109.685 9.64665 109.434 9.38525C108.922 8.85173 108.666 8.12484 108.666 7.20459C108.666 6.757 108.742 6.33984 108.892 5.95312C109.046 5.56283 109.255 5.22445 109.52 4.93799C109.785 4.65153 110.097 4.42594 110.455 4.26123C110.813 4.09652 111.2 4.01416 111.615 4.01416C111.987 4.01416 112.338 4.08757 112.668 4.23438C112.997 4.3776 113.289 4.57633 113.543 4.83057C113.798 5.08838 114.007 5.39095 114.172 5.73828C114.336 6.08561 114.44 6.46159 114.483 6.86621L109.832 7.55908C109.857 7.81331 109.92 8.04248 110.02 8.24658C110.124 8.4471 110.253 8.61719 110.407 8.75684C110.725 9.04329 111.128 9.18652 111.615 9.18652ZM109.864 6.56543L113.097 6.17334L113.065 6.07129C112.929 5.7168 112.741 5.43929 112.501 5.23877C112.265 5.03825 111.97 4.93799 111.615 4.93799C111.465 4.93799 111.3 4.96484 111.121 5.01855C110.942 5.06868 110.768 5.15641 110.6 5.28174C110.432 5.40706 110.279 5.57536 110.143 5.78662C110.011 5.9943 109.918 6.25391 109.864 6.56543ZM120.885 6.25928L119.827 6.65674C119.824 6.35238 119.781 6.10531 119.698 5.91553C119.62 5.72575 119.514 5.58252 119.381 5.48584C119.256 5.39274 119.115 5.34977 118.957 5.35693C118.853 5.37484 118.748 5.41602 118.64 5.48047C118.529 5.5485 118.413 5.63802 118.291 5.74902C118.173 5.86003 118.055 5.98356 117.937 6.11963C117.876 6.18766 117.817 6.25749 117.759 6.3291C117.702 6.40072 117.645 6.47233 117.588 6.54395C117.477 6.68717 117.371 6.83219 117.271 6.979C117.17 7.12223 117.081 7.25293 117.002 7.37109C117.006 7.5179 117.009 7.6862 117.013 7.87598C117.016 8.06217 117.02 8.24658 117.024 8.4292C117.031 8.60824 117.036 8.76042 117.04 8.88574C117.047 9.11133 117.054 9.31543 117.061 9.49805C117.068 9.67708 117.077 9.8221 117.088 9.93311L115.933 10.0781L115.826 7.06494C115.819 6.86084 115.811 6.64242 115.804 6.40967C115.797 6.17334 115.79 5.95133 115.783 5.74365C115.776 5.53239 115.77 5.36589 115.767 5.24414C115.752 4.73926 115.742 4.3597 115.734 4.10547L116.959 4.08398C116.963 4.19499 116.964 4.30599 116.964 4.41699C116.964 4.52441 116.966 4.63542 116.97 4.75C116.97 4.86458 116.97 4.97559 116.97 5.08301C116.97 5.18685 116.972 5.28532 116.975 5.37842C116.979 5.48942 116.981 5.60042 116.981 5.71143C116.981 5.81885 116.981 5.92448 116.981 6.02832C117.084 5.86361 117.212 5.68278 117.362 5.48584C117.512 5.2889 117.681 5.1027 117.867 4.92725C118.057 4.75179 118.262 4.59961 118.484 4.4707C118.706 4.33822 118.945 4.25586 119.199 4.22363C119.478 4.20931 119.74 4.27018 119.983 4.40625C120.083 4.46354 120.182 4.54053 120.278 4.63721C120.379 4.73031 120.472 4.85026 120.558 4.99707C120.64 5.14746 120.71 5.3265 120.767 5.53418C120.824 5.73828 120.864 5.97998 120.885 6.25928ZM130.596 4.65332L130.639 1.90332L131.649 1.97852L131.627 9.90088H130.526L130.537 9.21875C130.336 9.40495 130.12 9.55355 129.887 9.66455C129.658 9.77555 129.439 9.85791 129.232 9.91162C129.006 9.96891 128.782 10.0011 128.56 10.0083C127.715 10.0083 127.017 9.72721 126.466 9.16504C126.201 8.89648 125.991 8.56885 125.837 8.18213C125.687 7.79541 125.612 7.36035 125.612 6.87695C125.612 6.38997 125.696 5.95671 125.864 5.57715C126.036 5.19401 126.258 4.87174 126.53 4.61035C126.806 4.34896 127.115 4.15023 127.459 4.01416C127.803 3.87451 128.15 3.80469 128.501 3.80469C128.741 3.80827 128.985 3.84049 129.232 3.90137C129.443 3.9515 129.67 4.03564 129.914 4.15381C130.157 4.26839 130.385 4.4349 130.596 4.65332ZM128.56 9.02002C129.011 9.02002 129.423 8.88216 129.796 8.60645C130.168 8.33431 130.422 7.97803 130.558 7.5376L130.569 6.39355C130.505 6.16439 130.404 5.95492 130.268 5.76514C130.132 5.57178 129.973 5.40706 129.79 5.271C129.407 4.98454 128.986 4.84131 128.528 4.84131C128.263 4.84131 128.02 4.89681 127.798 5.00781C127.576 5.11523 127.384 5.26383 127.223 5.45361C127.062 5.64339 126.936 5.86719 126.847 6.125C126.757 6.38281 126.713 6.66211 126.713 6.96289C126.713 7.26367 126.757 7.53939 126.847 7.79004C126.94 8.04069 127.069 8.25732 127.234 8.43994C127.395 8.62256 127.588 8.76579 127.814 8.86963C128.043 8.96989 128.292 9.02002 128.56 9.02002ZM138.856 7.07568C138.856 7.52686 138.781 7.94401 138.631 8.32715C138.48 8.71029 138.275 9.04329 138.013 9.32617C137.752 9.60905 137.446 9.82926 137.095 9.98682C136.744 10.1479 136.37 10.2285 135.972 10.2285C135.159 10.2285 134.484 9.93848 133.947 9.3584C133.686 9.08268 133.48 8.75146 133.33 8.36475C133.179 7.97803 133.104 7.54834 133.104 7.07568C133.104 6.59945 133.179 6.16797 133.33 5.78125C133.48 5.39095 133.686 5.05794 133.947 4.78223C134.205 4.50651 134.508 4.29346 134.855 4.14307C135.202 3.99268 135.575 3.91748 135.972 3.91748C136.37 3.91748 136.744 3.99805 137.095 4.15918C137.446 4.31673 137.752 4.53516 138.013 4.81445C138.275 5.09733 138.48 5.43213 138.631 5.81885C138.781 6.20199 138.856 6.62093 138.856 7.07568ZM137.723 7.06494C137.723 6.80713 137.691 6.54574 137.626 6.28076C137.562 6.01579 137.46 5.77946 137.32 5.57178C137.181 5.36051 137 5.19043 136.778 5.06152C136.556 4.92904 136.287 4.86279 135.972 4.86279C135.668 4.86279 135.406 4.92904 135.188 5.06152C134.97 5.19043 134.79 5.36051 134.651 5.57178C134.511 5.77946 134.409 6.01579 134.345 6.28076C134.28 6.54574 134.248 6.80713 134.248 7.06494C134.248 7.32275 134.282 7.58236 134.35 7.84375C134.422 8.10156 134.529 8.3361 134.672 8.54736C134.816 8.75505 134.995 8.92692 135.209 9.06299C135.428 9.19548 135.682 9.26172 135.972 9.26172C136.276 9.26172 136.538 9.19548 136.756 9.06299C136.978 8.92692 137.161 8.75505 137.304 8.54736C137.447 8.3361 137.553 8.10156 137.621 7.84375C137.689 7.58236 137.723 7.32275 137.723 7.06494ZM142.847 9.18652C143.244 9.18652 143.61 9.06836 143.943 8.83203C144.276 8.59212 144.492 8.25911 144.593 7.83301L145.629 8.04248C145.529 8.36833 145.387 8.66374 145.205 8.92871C145.022 9.19368 144.809 9.42106 144.566 9.61084C144.322 9.80062 144.054 9.94743 143.76 10.0513C143.47 10.1551 143.166 10.207 142.847 10.207C142.374 10.207 141.955 10.1354 141.59 9.99219C141.225 9.84896 140.917 9.64665 140.666 9.38525C140.154 8.85173 139.898 8.12484 139.898 7.20459C139.898 6.757 139.973 6.33984 140.124 5.95312C140.278 5.56283 140.487 5.22445 140.752 4.93799C141.017 4.65153 141.329 4.42594 141.687 4.26123C142.045 4.09652 142.432 4.01416 142.847 4.01416C143.219 4.01416 143.57 4.08757 143.9 4.23438C144.229 4.3776 144.521 4.57633 144.775 4.83057C145.029 5.08838 145.239 5.39095 145.404 5.73828C145.568 6.08561 145.672 6.46159 145.715 6.86621L141.064 7.55908C141.089 7.81331 141.151 8.04248 141.252 8.24658C141.356 8.4471 141.484 8.61719 141.638 8.75684C141.957 9.04329 142.36 9.18652 142.847 9.18652ZM141.096 6.56543L144.329 6.17334L144.297 6.07129C144.161 5.7168 143.973 5.43929 143.733 5.23877C143.497 5.03825 143.201 4.93799 142.847 4.93799C142.697 4.93799 142.532 4.96484 142.353 5.01855C142.174 5.06868 142 5.15641 141.832 5.28174C141.663 5.40706 141.511 5.57536 141.375 5.78662C141.243 5.9943 141.15 6.25391 141.096 6.56543ZM151.951 8.50439C151.951 8.84456 151.883 9.13102 151.747 9.36377C151.611 9.59294 151.426 9.78092 151.193 9.92773C150.964 10.071 150.699 10.1766 150.398 10.2446C150.098 10.3162 149.786 10.3592 149.464 10.3735C149.127 10.3664 148.794 10.3324 148.465 10.2715C148.175 10.2214 147.854 10.1283 147.503 9.99219C147.153 9.85612 146.837 9.67887 146.558 9.46045L147.079 8.64404C147.276 8.74788 147.477 8.84814 147.681 8.94482C147.888 9.0415 148.1 9.12565 148.314 9.19727C148.529 9.27246 148.75 9.33154 148.975 9.37451C149.201 9.41748 149.433 9.43896 149.673 9.43896C150.014 9.43896 150.275 9.38346 150.458 9.27246C150.64 9.15788 150.76 9.01823 150.817 8.85352C150.882 8.63867 150.819 8.43278 150.629 8.23584C150.594 8.20003 150.552 8.16781 150.506 8.13916C150.459 8.10693 150.407 8.0765 150.35 8.04785C150.236 7.99414 150.096 7.94938 149.931 7.91357C149.766 7.87777 149.571 7.85449 149.346 7.84375C149.023 7.82943 148.712 7.7972 148.411 7.74707C148.114 7.69336 147.849 7.611 147.616 7.5C147.38 7.389 147.185 7.24398 147.031 7.06494C146.88 6.88232 146.789 6.65495 146.757 6.38281C146.732 6.13574 146.75 5.89941 146.811 5.67383C146.925 5.26204 147.161 4.92367 147.52 4.65869C147.609 4.59782 147.7 4.54053 147.793 4.48682C147.89 4.43311 147.99 4.38477 148.094 4.3418C148.302 4.25944 148.52 4.19857 148.75 4.15918C148.982 4.11621 149.217 4.09473 149.453 4.09473C149.593 4.09473 149.758 4.10189 149.947 4.11621C150.137 4.13053 150.336 4.15918 150.543 4.20215C150.751 4.24512 150.961 4.30778 151.172 4.39014C151.383 4.46891 151.58 4.57454 151.763 4.70703L151.392 5.68994C151.156 5.56462 150.93 5.46794 150.715 5.3999C150.504 5.32829 150.316 5.27279 150.151 5.2334C150.055 5.21191 149.96 5.19401 149.867 5.17969C149.777 5.16536 149.691 5.15462 149.609 5.14746C149.047 5.11523 148.608 5.17432 148.293 5.32471C147.981 5.4751 147.826 5.70247 147.826 6.00684C147.826 6.22168 147.885 6.37923 148.003 6.47949C148.121 6.57617 148.282 6.646 148.486 6.68896C148.605 6.71403 148.755 6.73551 148.938 6.75342C149.124 6.76774 149.317 6.78385 149.518 6.80176C149.722 6.81966 149.906 6.84115 150.071 6.86621C150.422 6.91992 150.717 7.00049 150.957 7.10791C151.197 7.21533 151.39 7.34066 151.537 7.48389C151.684 7.62712 151.79 7.78646 151.854 7.96191C151.918 8.13379 151.951 8.31462 151.951 8.50439ZM158.621 9.93311L157.466 10.0781L157.359 7.06494C157.352 6.86084 157.345 6.64242 157.337 6.40967C157.33 6.17334 157.323 5.95133 157.316 5.74365C157.309 5.53239 157.303 5.36589 157.3 5.24414C157.286 4.73926 157.275 4.3597 157.268 4.10547L158.492 4.08398L158.514 5.63086C158.632 5.42676 158.766 5.23519 158.917 5.05615C159.067 4.87354 159.23 4.7124 159.405 4.57275C159.581 4.43311 159.767 4.32031 159.964 4.23438C160.164 4.14844 160.374 4.09831 160.592 4.08398C160.868 4.06608 161.106 4.08936 161.307 4.15381C161.507 4.21826 161.679 4.30778 161.822 4.42236C161.966 4.53337 162.084 4.66764 162.177 4.8252C162.274 4.98633 162.347 5.14746 162.397 5.30859C162.451 5.47331 162.488 5.63981 162.51 5.80811C162.535 5.97282 162.551 6.12321 162.558 6.25928C162.58 6.87516 162.585 7.49463 162.574 8.11768C162.564 8.74072 162.551 9.38704 162.537 10.0566L161.436 10.019C161.464 9.44255 161.489 8.86605 161.511 8.28955C161.536 7.71305 161.534 7.13118 161.505 6.54395C161.505 6.41862 161.491 6.27539 161.462 6.11426C161.434 5.94954 161.382 5.78662 161.307 5.62549C161.253 5.51449 161.183 5.41602 161.097 5.33008C161.011 5.24772 160.906 5.18506 160.78 5.14209C160.659 5.09912 160.515 5.09017 160.351 5.11523C160.068 5.1582 159.781 5.3641 159.491 5.73291C159.205 6.09098 158.89 6.63346 158.546 7.36035L158.584 8.73535C158.587 8.90723 158.591 9.05762 158.594 9.18652C158.598 9.31543 158.601 9.42464 158.605 9.51416C158.612 9.72184 158.618 9.86149 158.621 9.93311ZM169.723 7.07568C169.723 7.52686 169.648 7.94401 169.497 8.32715C169.347 8.71029 169.141 9.04329 168.88 9.32617C168.618 9.60905 168.312 9.82926 167.961 9.98682C167.61 10.1479 167.236 10.2285 166.839 10.2285C166.026 10.2285 165.351 9.93848 164.814 9.3584C164.552 9.08268 164.347 8.75146 164.196 8.36475C164.046 7.97803 163.971 7.54834 163.971 7.07568C163.971 6.59945 164.046 6.16797 164.196 5.78125C164.347 5.39095 164.552 5.05794 164.814 4.78223C165.072 4.50651 165.374 4.29346 165.722 4.14307C166.069 3.99268 166.441 3.91748 166.839 3.91748C167.236 3.91748 167.61 3.99805 167.961 4.15918C168.312 4.31673 168.618 4.53516 168.88 4.81445C169.141 5.09733 169.347 5.43213 169.497 5.81885C169.648 6.20199 169.723 6.62093 169.723 7.07568ZM168.59 7.06494C168.59 6.80713 168.557 6.54574 168.493 6.28076C168.429 6.01579 168.327 5.77946 168.187 5.57178C168.047 5.36051 167.866 5.19043 167.644 5.06152C167.422 4.92904 167.154 4.86279 166.839 4.86279C166.534 4.86279 166.273 4.92904 166.055 5.06152C165.836 5.19043 165.657 5.36051 165.517 5.57178C165.378 5.77946 165.276 6.01579 165.211 6.28076C165.147 6.54574 165.115 6.80713 165.115 7.06494C165.115 7.32275 165.149 7.58236 165.217 7.84375C165.288 8.10156 165.396 8.3361 165.539 8.54736C165.682 8.75505 165.861 8.92692 166.076 9.06299C166.294 9.19548 166.549 9.26172 166.839 9.26172C167.143 9.26172 167.404 9.19548 167.623 9.06299C167.845 8.92692 168.028 8.75505 168.171 8.54736C168.314 8.3361 168.42 8.10156 168.488 7.84375C168.556 7.58236 168.59 7.32275 168.59 7.06494ZM172.36 4.36865L172.403 2.01611L173.472 1.94629L173.434 4.34717L175.518 4.27734L175.438 5.28174L173.423 5.33545L173.381 10.019L172.247 10.0459L172.339 5.36768L170.48 5.41064L170.502 4.42236L172.36 4.36865ZM182.011 2.521C182.011 2.72868 181.934 2.90771 181.78 3.05811C181.63 3.20492 181.449 3.27832 181.238 3.27832C181.03 3.27832 180.851 3.20492 180.701 3.05811C180.554 2.90771 180.481 2.72868 180.481 2.521C180.481 2.30973 180.554 2.12891 180.701 1.97852C180.851 1.82454 181.03 1.74756 181.238 1.74756C181.449 1.74756 181.63 1.82454 181.78 1.97852C181.934 2.12891 182.011 2.30973 182.011 2.521ZM180.647 4.45459L181.759 4.41162L181.705 6.98975C181.687 7.69873 181.677 8.25553 181.673 8.66016C181.662 9.1543 181.657 9.54281 181.657 9.82568H180.556C180.559 9.63232 180.563 9.42106 180.567 9.19189C180.574 8.95915 180.579 8.71029 180.583 8.44531C180.59 7.9834 180.601 7.42301 180.615 6.76416L180.647 4.45459ZM183.504 4.08398L184.627 3.96045L184.648 5.52344C184.81 5.31934 184.98 5.11882 185.159 4.92188C185.338 4.72493 185.535 4.56201 185.749 4.43311C185.968 4.30062 186.213 4.23438 186.485 4.23438C186.804 4.23438 187.083 4.34001 187.323 4.55127C187.563 4.75895 187.703 5.0651 187.742 5.46973C187.896 5.27637 188.061 5.0848 188.236 4.89502C188.412 4.70524 188.605 4.54769 188.816 4.42236C189.028 4.29704 189.264 4.23438 189.525 4.23438C189.876 4.23438 190.172 4.35254 190.412 4.58887C190.655 4.8252 190.784 5.17253 190.798 5.63086C190.809 5.76335 190.82 5.91195 190.831 6.07666C190.841 6.23779 190.85 6.41862 190.857 6.61914C190.875 6.95931 190.89 7.39258 190.9 7.91895C190.915 8.44173 190.922 9.07015 190.922 9.8042L189.799 9.85791C189.799 9.20622 189.798 8.64941 189.794 8.1875C189.79 7.72201 189.787 7.33708 189.783 7.03271L189.767 6.15186C189.746 5.57178 189.588 5.28174 189.294 5.28174C189.162 5.28174 189.022 5.34261 188.875 5.46436C188.729 5.5861 188.598 5.72038 188.483 5.86719C188.437 5.92448 188.392 5.98177 188.349 6.03906C188.31 6.09277 188.27 6.14827 188.231 6.20557C188.152 6.32015 188.077 6.43115 188.005 6.53857C187.934 6.646 187.871 6.74089 187.817 6.82324C187.825 6.98079 187.832 7.15446 187.839 7.34424C187.85 7.53402 187.857 7.74886 187.86 7.98877C187.867 8.22868 187.871 8.49723 187.871 8.79443C187.871 9.09163 187.871 9.42822 187.871 9.8042L186.829 9.85791C186.829 9.20622 186.822 8.64941 186.808 8.1875C186.797 7.72201 186.784 7.33708 186.77 7.03271C186.763 6.85368 186.754 6.69076 186.743 6.54395C186.736 6.39714 186.727 6.26644 186.716 6.15186C186.695 5.57178 186.537 5.28174 186.244 5.28174C186.154 5.28174 186.059 5.31217 185.959 5.37305C185.762 5.49837 185.569 5.68636 185.379 5.93701C185.332 5.99788 185.286 6.06055 185.239 6.125C185.196 6.18945 185.153 6.25212 185.11 6.31299C185.042 6.41325 184.964 6.52962 184.874 6.66211C184.788 6.7946 184.72 6.89844 184.67 6.97363L184.718 9.8042L183.649 9.85791L183.504 4.08398ZM192.764 12.9248L192.673 4.09473L193.854 4.04639L193.844 4.83057C194.048 4.63005 194.261 4.47607 194.483 4.36865C194.705 4.25765 194.909 4.1735 195.095 4.11621C195.324 4.04818 195.537 4.007 195.734 3.99268C195.981 3.99268 196.223 4.02669 196.459 4.09473C196.943 4.23438 197.369 4.48682 197.738 4.85205C197.92 5.02751 198.076 5.22624 198.205 5.44824C198.334 5.66667 198.432 5.90479 198.5 6.1626C198.572 6.41683 198.602 6.68359 198.592 6.96289C198.581 7.26367 198.534 7.55371 198.452 7.83301C198.287 8.3737 198.022 8.82845 197.657 9.19727C197.482 9.37988 197.292 9.53385 197.088 9.65918C196.672 9.91699 196.246 10.0459 195.809 10.0459C195.591 10.0423 195.369 10.0101 195.143 9.94922C194.946 9.89909 194.73 9.82031 194.493 9.71289C194.257 9.60905 194.024 9.45866 193.795 9.26172L193.763 12.9033L192.764 12.9248ZM197.383 7.06494C197.412 6.52067 197.26 6.05697 196.927 5.67383C196.765 5.49121 196.574 5.34619 196.352 5.23877C196.13 5.13135 195.886 5.07943 195.621 5.08301C195.188 5.09017 194.809 5.22982 194.483 5.50195C194.16 5.77051 193.942 6.09635 193.827 6.47949L193.817 7.5C193.87 7.73633 193.955 7.94401 194.069 8.12305C194.187 8.30208 194.323 8.45068 194.477 8.56885C194.792 8.81234 195.145 8.93766 195.535 8.94482C195.786 8.95199 196.021 8.90723 196.239 8.81055C196.461 8.71387 196.654 8.57959 196.819 8.40771C196.984 8.23584 197.115 8.03532 197.211 7.80615C197.311 7.57699 197.369 7.32992 197.383 7.06494ZM205.112 6.25928L204.054 6.65674C204.05 6.35238 204.007 6.10531 203.925 5.91553C203.846 5.72575 203.74 5.58252 203.608 5.48584C203.483 5.39274 203.341 5.34977 203.184 5.35693C203.08 5.37484 202.974 5.41602 202.867 5.48047C202.756 5.5485 202.639 5.63802 202.518 5.74902C202.399 5.86003 202.281 5.98356 202.163 6.11963C202.102 6.18766 202.043 6.25749 201.986 6.3291C201.929 6.40072 201.871 6.47233 201.814 6.54395C201.703 6.68717 201.597 6.83219 201.497 6.979C201.397 7.12223 201.307 7.25293 201.229 7.37109C201.232 7.5179 201.236 7.6862 201.239 7.87598C201.243 8.06217 201.246 8.24658 201.25 8.4292C201.257 8.60824 201.263 8.76042 201.266 8.88574C201.273 9.11133 201.28 9.31543 201.288 9.49805C201.295 9.67708 201.304 9.8221 201.314 9.93311L200.16 10.0781L200.052 7.06494C200.045 6.86084 200.038 6.64242 200.031 6.40967C200.024 6.17334 200.016 5.95133 200.009 5.74365C200.002 5.53239 199.997 5.36589 199.993 5.24414C199.979 4.73926 199.968 4.3597 199.961 4.10547L201.186 4.08398C201.189 4.19499 201.191 4.30599 201.191 4.41699C201.191 4.52441 201.193 4.63542 201.196 4.75C201.196 4.86458 201.196 4.97559 201.196 5.08301C201.196 5.18685 201.198 5.28532 201.202 5.37842C201.205 5.48942 201.207 5.60042 201.207 5.71143C201.207 5.81885 201.207 5.92448 201.207 6.02832C201.311 5.86361 201.438 5.68278 201.588 5.48584C201.739 5.2889 201.907 5.1027 202.093 4.92725C202.283 4.75179 202.489 4.59961 202.711 4.4707C202.933 4.33822 203.171 4.25586 203.425 4.22363C203.705 4.20931 203.966 4.27018 204.21 4.40625C204.31 4.46354 204.408 4.54053 204.505 4.63721C204.605 4.73031 204.698 4.85026 204.784 4.99707C204.867 5.14746 204.936 5.3265 204.994 5.53418C205.051 5.73828 205.09 5.97998 205.112 6.25928ZM208.796 9.18652C209.194 9.18652 209.559 9.06836 209.892 8.83203C210.225 8.59212 210.442 8.25911 210.542 7.83301L211.578 8.04248C211.478 8.36833 211.337 8.66374 211.154 8.92871C210.971 9.19368 210.758 9.42106 210.515 9.61084C210.271 9.80062 210.003 9.94743 209.709 10.0513C209.419 10.1551 209.115 10.207 208.796 10.207C208.324 10.207 207.905 10.1354 207.539 9.99219C207.174 9.84896 206.866 9.64665 206.616 9.38525C206.103 8.85173 205.847 8.12484 205.847 7.20459C205.847 6.757 205.923 6.33984 206.073 5.95312C206.227 5.56283 206.437 5.22445 206.701 4.93799C206.966 4.65153 207.278 4.42594 207.636 4.26123C207.994 4.09652 208.381 4.01416 208.796 4.01416C209.169 4.01416 209.52 4.08757 209.849 4.23438C210.178 4.3776 210.47 4.57633 210.724 4.83057C210.979 5.08838 211.188 5.39095 211.353 5.73828C211.518 6.08561 211.621 6.46159 211.664 6.86621L207.013 7.55908C207.038 7.81331 207.101 8.04248 207.201 8.24658C207.305 8.4471 207.434 8.61719 207.588 8.75684C207.906 9.04329 208.309 9.18652 208.796 9.18652ZM207.045 6.56543L210.279 6.17334L210.246 6.07129C210.11 5.7168 209.922 5.43929 209.682 5.23877C209.446 5.03825 209.151 4.93799 208.796 4.93799C208.646 4.93799 208.481 4.96484 208.302 5.01855C208.123 5.06868 207.949 5.15641 207.781 5.28174C207.613 5.40706 207.461 5.57536 207.325 5.78662C207.192 5.9943 207.099 6.25391 207.045 6.56543ZM217.9 8.50439C217.9 8.84456 217.832 9.13102 217.696 9.36377C217.56 9.59294 217.375 9.78092 217.143 9.92773C216.914 10.071 216.649 10.1766 216.348 10.2446C216.047 10.3162 215.735 10.3592 215.413 10.3735C215.077 10.3664 214.744 10.3324 214.414 10.2715C214.124 10.2214 213.804 10.1283 213.453 9.99219C213.102 9.85612 212.787 9.67887 212.507 9.46045L213.028 8.64404C213.225 8.74788 213.426 8.84814 213.63 8.94482C213.838 9.0415 214.049 9.12565 214.264 9.19727C214.479 9.27246 214.699 9.33154 214.924 9.37451C215.15 9.41748 215.383 9.43896 215.623 9.43896C215.963 9.43896 216.224 9.38346 216.407 9.27246C216.589 9.15788 216.709 9.01823 216.767 8.85352C216.831 8.63867 216.768 8.43278 216.579 8.23584C216.543 8.20003 216.502 8.16781 216.455 8.13916C216.409 8.10693 216.357 8.0765 216.299 8.04785C216.185 7.99414 216.045 7.94938 215.88 7.91357C215.716 7.87777 215.521 7.85449 215.295 7.84375C214.973 7.82943 214.661 7.7972 214.36 7.74707C214.063 7.69336 213.798 7.611 213.566 7.5C213.329 7.389 213.134 7.24398 212.98 7.06494C212.83 6.88232 212.738 6.65495 212.706 6.38281C212.681 6.13574 212.699 5.89941 212.76 5.67383C212.874 5.26204 213.111 4.92367 213.469 4.65869C213.558 4.59782 213.65 4.54053 213.743 4.48682C213.839 4.43311 213.94 4.38477 214.044 4.3418C214.251 4.25944 214.47 4.19857 214.699 4.15918C214.932 4.11621 215.166 4.09473 215.402 4.09473C215.542 4.09473 215.707 4.10189 215.897 4.11621C216.086 4.13053 216.285 4.15918 216.493 4.20215C216.7 4.24512 216.91 4.30778 217.121 4.39014C217.332 4.46891 217.529 4.57454 217.712 4.70703L217.341 5.68994C217.105 5.56462 216.879 5.46794 216.665 5.3999C216.453 5.32829 216.265 5.27279 216.101 5.2334C216.004 5.21191 215.909 5.19401 215.816 5.17969C215.726 5.16536 215.641 5.15462 215.558 5.14746C214.996 5.11523 214.557 5.17432 214.242 5.32471C213.931 5.4751 213.775 5.70247 213.775 6.00684C213.775 6.22168 213.834 6.37923 213.952 6.47949C214.07 6.57617 214.232 6.646 214.436 6.68896C214.554 6.71403 214.704 6.73551 214.887 6.75342C215.073 6.76774 215.266 6.78385 215.467 6.80176C215.671 6.81966 215.855 6.84115 216.02 6.86621C216.371 6.91992 216.666 7.00049 216.906 7.10791C217.146 7.21533 217.34 7.34066 217.486 7.48389C217.633 7.62712 217.739 7.78646 217.803 7.96191C217.868 8.13379 217.9 8.31462 217.9 8.50439ZM224.222 8.50439C224.222 8.84456 224.154 9.13102 224.017 9.36377C223.881 9.59294 223.697 9.78092 223.464 9.92773C223.235 10.071 222.97 10.1766 222.669 10.2446C222.369 10.3162 222.057 10.3592 221.735 10.3735C221.398 10.3664 221.065 10.3324 220.736 10.2715C220.446 10.2214 220.125 10.1283 219.774 9.99219C219.423 9.85612 219.108 9.67887 218.829 9.46045L219.35 8.64404C219.547 8.74788 219.747 8.84814 219.952 8.94482C220.159 9.0415 220.37 9.12565 220.585 9.19727C220.8 9.27246 221.02 9.33154 221.246 9.37451C221.472 9.41748 221.704 9.43896 221.944 9.43896C222.284 9.43896 222.546 9.38346 222.728 9.27246C222.911 9.15788 223.031 9.01823 223.088 8.85352C223.153 8.63867 223.09 8.43278 222.9 8.23584C222.864 8.20003 222.823 8.16781 222.777 8.13916C222.73 8.10693 222.678 8.0765 222.621 8.04785C222.506 7.99414 222.367 7.94938 222.202 7.91357C222.037 7.87777 221.842 7.85449 221.617 7.84375C221.294 7.82943 220.983 7.7972 220.682 7.74707C220.385 7.69336 220.12 7.611 219.887 7.5C219.651 7.389 219.456 7.24398 219.302 7.06494C219.151 6.88232 219.06 6.65495 219.028 6.38281C219.003 6.13574 219.021 5.89941 219.081 5.67383C219.196 5.26204 219.432 4.92367 219.79 4.65869C219.88 4.59782 219.971 4.54053 220.064 4.48682C220.161 4.43311 220.261 4.38477 220.365 4.3418C220.573 4.25944 220.791 4.19857 221.02 4.15918C221.253 4.11621 221.488 4.09473 221.724 4.09473C221.864 4.09473 222.028 4.10189 222.218 4.11621C222.408 4.13053 222.607 4.15918 222.814 4.20215C223.022 4.24512 223.231 4.30778 223.443 4.39014C223.654 4.46891 223.851 4.57454 224.034 4.70703L223.663 5.68994C223.427 5.56462 223.201 5.46794 222.986 5.3999C222.775 5.32829 222.587 5.27279 222.422 5.2334C222.326 5.21191 222.231 5.19401 222.138 5.17969C222.048 5.16536 221.962 5.15462 221.88 5.14746C221.318 5.11523 220.879 5.17432 220.564 5.32471C220.252 5.4751 220.097 5.70247 220.097 6.00684C220.097 6.22168 220.156 6.37923 220.274 6.47949C220.392 6.57617 220.553 6.646 220.757 6.68896C220.875 6.71403 221.026 6.73551 221.208 6.75342C221.395 6.76774 221.588 6.78385 221.788 6.80176C221.993 6.81966 222.177 6.84115 222.342 6.86621C222.693 6.91992 222.988 7.00049 223.228 7.10791C223.468 7.21533 223.661 7.34066 223.808 7.48389C223.955 7.62712 224.06 7.78646 224.125 7.96191C224.189 8.13379 224.222 8.31462 224.222 8.50439ZM233.357 4.23438L234.555 4.24512C234.365 4.80371 234.192 5.31396 234.034 5.77588C233.88 6.23779 233.74 6.65495 233.615 7.02734C233.551 7.21712 233.479 7.4266 233.4 7.65576C233.325 7.88135 233.252 8.09619 233.18 8.30029C233.112 8.50081 233.057 8.66195 233.014 8.78369C232.924 9.03792 232.845 9.2653 232.777 9.46582C232.709 9.66276 232.65 9.82926 232.6 9.96533C232.564 10.0692 232.525 10.1766 232.482 10.2876C232.442 10.4022 232.4 10.5203 232.353 10.6421C232.256 10.8784 232.138 11.1147 231.998 11.3511C231.862 11.5874 231.703 11.8166 231.52 12.0386C231.341 12.2498 231.127 12.4468 230.876 12.6294C230.629 12.8013 230.348 12.9427 230.033 13.0537C229.718 13.1647 229.363 13.2292 228.969 13.2471L228.76 12.1997C228.982 12.2248 229.191 12.2194 229.388 12.1836C229.764 12.1012 230.099 11.9294 230.393 11.668C230.525 11.5498 230.654 11.4173 230.779 11.2705C230.894 11.1309 230.996 10.9876 231.085 10.8408C231.175 10.6976 231.254 10.5633 231.322 10.438L229.055 4.42236L230.285 4.25586L231.87 8.98779C231.956 8.72282 232.056 8.4113 232.17 8.05322C232.289 7.69157 232.414 7.30306 232.546 6.8877C232.675 6.47233 232.81 6.03906 232.949 5.58789C233.089 5.13314 233.225 4.68197 233.357 4.23438ZM241.231 7.07568C241.231 7.52686 241.156 7.94401 241.006 8.32715C240.855 8.71029 240.649 9.04329 240.388 9.32617C240.127 9.60905 239.82 9.82926 239.469 9.98682C239.119 10.1479 238.744 10.2285 238.347 10.2285C237.534 10.2285 236.859 9.93848 236.322 9.3584C236.061 9.08268 235.855 8.75146 235.704 8.36475C235.554 7.97803 235.479 7.54834 235.479 7.07568C235.479 6.59945 235.554 6.16797 235.704 5.78125C235.855 5.39095 236.061 5.05794 236.322 4.78223C236.58 4.50651 236.882 4.29346 237.23 4.14307C237.577 3.99268 237.949 3.91748 238.347 3.91748C238.744 3.91748 239.119 3.99805 239.469 4.15918C239.82 4.31673 240.127 4.53516 240.388 4.81445C240.649 5.09733 240.855 5.43213 241.006 5.81885C241.156 6.20199 241.231 6.62093 241.231 7.07568ZM240.098 7.06494C240.098 6.80713 240.066 6.54574 240.001 6.28076C239.937 6.01579 239.835 5.77946 239.695 5.57178C239.555 5.36051 239.375 5.19043 239.153 5.06152C238.931 4.92904 238.662 4.86279 238.347 4.86279C238.043 4.86279 237.781 4.92904 237.563 5.06152C237.344 5.19043 237.165 5.36051 237.026 5.57178C236.886 5.77946 236.784 6.01579 236.719 6.28076C236.655 6.54574 236.623 6.80713 236.623 7.06494C236.623 7.32275 236.657 7.58236 236.725 7.84375C236.796 8.10156 236.904 8.3361 237.047 8.54736C237.19 8.75505 237.369 8.92692 237.584 9.06299C237.803 9.19548 238.057 9.26172 238.347 9.26172C238.651 9.26172 238.913 9.19548 239.131 9.06299C239.353 8.92692 239.536 8.75505 239.679 8.54736C239.822 8.3361 239.928 8.10156 239.996 7.84375C240.064 7.58236 240.098 7.32275 240.098 7.06494ZM248.004 10.0459L246.779 10.0674L246.758 8.52588C246.64 8.73714 246.505 8.93766 246.355 9.12744C246.205 9.31364 246.042 9.47656 245.866 9.61621C245.691 9.75944 245.503 9.87223 245.302 9.95459C245.105 10.0369 244.898 10.0745 244.679 10.0674C244.353 10.0566 244.078 9.99577 243.852 9.88477C243.623 9.77376 243.428 9.62516 243.267 9.43896C243.109 9.25277 242.984 9.03971 242.891 8.7998C242.79 8.54915 242.717 8.29492 242.67 8.03711C242.62 7.76855 242.586 7.49463 242.568 7.21533C242.554 6.93245 242.547 6.65853 242.547 6.39355C242.547 6.02116 242.563 5.64518 242.595 5.26562C242.627 4.88249 242.674 4.49219 242.735 4.09473L243.836 4.12695C243.779 4.57096 243.739 4.97021 243.718 5.32471C243.7 5.6792 243.691 5.99072 243.691 6.25928C243.691 6.32015 243.691 6.38997 243.691 6.46875C243.691 6.54395 243.693 6.62809 243.696 6.72119C243.7 6.90739 243.712 7.10612 243.734 7.31738C243.759 7.52507 243.797 7.73096 243.847 7.93506C243.893 8.132 243.965 8.31283 244.062 8.47754C244.155 8.63867 244.269 8.76221 244.405 8.84814C244.545 8.93408 244.717 8.96273 244.921 8.93408C245.193 8.89827 245.481 8.7085 245.786 8.36475C246.086 8.021 246.4 7.49821 246.726 6.79639L246.699 5.43213C246.695 5.26383 246.692 5.11523 246.688 4.98633C246.684 4.85384 246.681 4.74284 246.677 4.65332C246.67 4.43848 246.665 4.29167 246.661 4.21289L247.816 4.08398L247.875 5.74902C247.882 5.99967 247.889 6.236 247.896 6.45801C247.904 6.68001 247.911 6.88949 247.918 7.08643C247.925 7.28695 247.932 7.50716 247.939 7.74707C247.947 7.9834 247.954 8.2054 247.961 8.41309C247.968 8.62077 247.973 8.78548 247.977 8.90723C247.984 9.16146 247.99 9.38346 247.993 9.57324C247.997 9.76302 248 9.92057 248.004 10.0459ZM258.944 8.82129L259.669 4.21289L260.862 4.25586L259.793 9.86865L258.198 9.91162L257.253 5.96387L255.953 9.72363L254.347 9.84717L253.305 4.27734L254.411 4.19141L255.228 8.70312L256.823 4.19141L257.854 4.25586L258.944 8.82129ZM262.28 9.95459L262.188 1.67236L263.424 1.62939L263.391 4.89502C263.588 4.68018 263.798 4.51188 264.02 4.39014C264.242 4.26481 264.45 4.16992 264.643 4.10547C264.865 4.03385 265.085 3.98551 265.304 3.96045C266.113 3.96045 266.761 4.23796 267.248 4.79297C267.484 5.06152 267.67 5.38916 267.806 5.77588C267.946 6.15902 268.025 6.59229 268.043 7.07568C268.043 7.32992 268.039 7.58952 268.032 7.85449C268.028 8.11947 268.018 8.37907 268 8.6333C267.978 8.88753 267.95 9.12923 267.914 9.3584C267.882 9.58757 267.837 9.79346 267.78 9.97607L266.555 9.89014C266.659 9.54639 266.732 9.21159 266.775 8.88574C266.822 8.5599 266.854 8.26807 266.872 8.01025C266.886 7.70947 266.892 7.42301 266.888 7.15088C266.87 6.76774 266.804 6.44189 266.689 6.17334C266.578 5.90479 266.439 5.68457 266.27 5.5127C266.106 5.3444 265.921 5.22266 265.717 5.14746C265.517 5.06868 265.32 5.0293 265.126 5.0293C264.926 5.04362 264.72 5.1027 264.509 5.20654C264.33 5.29248 264.138 5.42676 263.934 5.60938C263.73 5.78841 263.54 6.04264 263.365 6.37207L263.332 9.93311L262.28 9.95459ZM274.885 10.1963L273.833 10.019L273.908 9.26172C273.471 9.54102 273.041 9.74333 272.619 9.86865C272.2 9.99398 271.808 10.0566 271.443 10.0566C271.185 10.0566 270.934 10.0226 270.691 9.95459C270.451 9.89014 270.239 9.78809 270.057 9.64844C269.871 9.51237 269.72 9.3387 269.606 9.12744C269.495 8.9126 269.439 8.66016 269.439 8.37012C269.439 8.08008 269.482 7.82048 269.568 7.59131C269.654 7.36214 269.772 7.15983 269.922 6.98438C270.073 6.80892 270.25 6.65853 270.454 6.5332C270.658 6.40788 270.879 6.30583 271.115 6.22705C271.348 6.14827 271.593 6.09098 271.851 6.05518C272.109 6.01579 272.365 5.99609 272.619 5.99609C272.855 5.99609 273.075 6.00505 273.279 6.02295C273.484 6.04085 273.664 6.06413 273.822 6.09277C273.757 5.83854 273.67 5.60042 273.559 5.37842C273.451 5.15641 273.308 4.97738 273.129 4.84131C272.954 4.70166 272.726 4.63184 272.447 4.63184C272.307 4.63184 272.148 4.65332 271.969 4.69629C271.79 4.73568 271.593 4.80908 271.378 4.9165C271.163 5.02393 270.929 5.17253 270.674 5.3623C270.42 5.5485 270.148 5.78841 269.858 6.08203L269.208 5.29248C269.552 4.97021 269.881 4.70703 270.196 4.50293C270.512 4.29883 270.809 4.1377 271.088 4.01953C271.364 3.90495 271.62 3.82617 271.856 3.7832C272.096 3.74023 272.311 3.71875 272.501 3.71875C272.834 3.71875 273.127 3.77425 273.381 3.88525C273.639 3.99626 273.867 4.15023 274.064 4.34717C274.261 4.54053 274.425 4.76969 274.558 5.03467C274.687 5.2889 274.796 5.57178 274.885 5.8833C274.971 6.18766 275.032 6.50277 275.068 6.82861C275.107 7.15446 275.127 7.47852 275.127 7.80078C275.127 8.14453 275.107 8.51335 275.068 8.90723C275.029 9.30111 274.968 9.73079 274.885 10.1963ZM273.983 8.06396C273.99 7.88493 273.996 7.70768 273.999 7.53223C274.003 7.35677 273.994 7.17415 273.972 6.98438C273.797 6.93066 273.612 6.8877 273.419 6.85547C273.226 6.82324 273.032 6.80713 272.839 6.80713C272.517 6.80713 272.203 6.84473 271.899 6.91992C271.598 6.99512 271.339 7.10433 271.12 7.24756C270.902 7.39079 270.737 7.56624 270.626 7.77393C270.519 7.98161 270.497 8.21794 270.562 8.48291C270.612 8.69775 270.708 8.84814 270.852 8.93408C270.998 9.02002 271.174 9.06299 271.378 9.06299C271.643 9.06299 271.94 9.00749 272.27 8.89648C272.599 8.7819 272.916 8.64583 273.22 8.48828C273.528 8.33073 273.783 8.18929 273.983 8.06396ZM277.957 4.36865L278 2.01611L279.069 1.94629L279.032 4.34717L281.116 4.27734L281.035 5.28174L279.021 5.33545L278.978 10.019L277.845 10.0459L277.936 5.36768L276.078 5.41064L276.099 4.42236L277.957 4.36865ZM288.731 9.18652C289.129 9.18652 289.494 9.06836 289.827 8.83203C290.16 8.59212 290.377 8.25911 290.477 7.83301L291.514 8.04248C291.413 8.36833 291.272 8.66374 291.089 8.92871C290.907 9.19368 290.694 9.42106 290.45 9.61084C290.207 9.80062 289.938 9.94743 289.644 10.0513C289.354 10.1551 289.05 10.207 288.731 10.207C288.259 10.207 287.84 10.1354 287.475 9.99219C287.109 9.84896 286.801 9.64665 286.551 9.38525C286.039 8.85173 285.783 8.12484 285.783 7.20459C285.783 6.757 285.858 6.33984 286.008 5.95312C286.162 5.56283 286.372 5.22445 286.637 4.93799C286.902 4.65153 287.213 4.42594 287.571 4.26123C287.929 4.09652 288.316 4.01416 288.731 4.01416C289.104 4.01416 289.455 4.08757 289.784 4.23438C290.114 4.3776 290.405 4.57633 290.66 4.83057C290.914 5.08838 291.123 5.39095 291.288 5.73828C291.453 6.08561 291.557 6.46159 291.6 6.86621L286.948 7.55908C286.973 7.81331 287.036 8.04248 287.136 8.24658C287.24 8.4471 287.369 8.61719 287.523 8.75684C287.842 9.04329 288.244 9.18652 288.731 9.18652ZM286.98 6.56543L290.214 6.17334L290.182 6.07129C290.046 5.7168 289.858 5.43929 289.618 5.23877C289.381 5.03825 289.086 4.93799 288.731 4.93799C288.581 4.93799 288.416 4.96484 288.237 5.01855C288.058 5.06868 287.885 5.15641 287.716 5.28174C287.548 5.40706 287.396 5.57536 287.26 5.78662C287.127 5.9943 287.034 6.25391 286.98 6.56543ZM295.16 8.875L295.021 9.94385C294.767 9.94027 294.541 9.8973 294.344 9.81494C294.151 9.73258 293.981 9.62516 293.834 9.49268C293.683 9.36377 293.554 9.21517 293.447 9.04688C293.343 8.87858 293.255 8.7085 293.184 8.53662C293.012 8.12842 292.905 7.6665 292.862 7.15088L293.007 0.340332H294.129L294.081 2.09131C294.074 2.35628 294.066 2.61051 294.059 2.854C294.052 3.09391 294.045 3.32308 294.038 3.5415C294.027 3.97477 294.016 4.36507 294.006 4.7124C293.998 5.05615 293.991 5.35872 293.984 5.62012C293.966 6.23958 293.955 6.72477 293.952 7.07568C293.955 7.40511 294.004 7.70231 294.097 7.96729C294.176 8.21077 294.299 8.42204 294.468 8.60107C294.636 8.77653 294.867 8.86784 295.16 8.875ZM301.149 8.50439C301.149 8.84456 301.081 9.13102 300.945 9.36377C300.809 9.59294 300.624 9.78092 300.392 9.92773C300.162 10.071 299.897 10.1766 299.597 10.2446C299.296 10.3162 298.984 10.3592 298.662 10.3735C298.326 10.3664 297.993 10.3324 297.663 10.2715C297.373 10.2214 297.053 10.1283 296.702 9.99219C296.351 9.85612 296.036 9.67887 295.756 9.46045L296.277 8.64404C296.474 8.74788 296.675 8.84814 296.879 8.94482C297.087 9.0415 297.298 9.12565 297.513 9.19727C297.728 9.27246 297.948 9.33154 298.173 9.37451C298.399 9.41748 298.632 9.43896 298.872 9.43896C299.212 9.43896 299.473 9.38346 299.656 9.27246C299.838 9.15788 299.958 9.01823 300.016 8.85352C300.08 8.63867 300.017 8.43278 299.828 8.23584C299.792 8.20003 299.751 8.16781 299.704 8.13916C299.658 8.10693 299.606 8.0765 299.548 8.04785C299.434 7.99414 299.294 7.94938 299.129 7.91357C298.965 7.87777 298.77 7.85449 298.544 7.84375C298.222 7.82943 297.91 7.7972 297.609 7.74707C297.312 7.69336 297.047 7.611 296.814 7.5C296.578 7.389 296.383 7.24398 296.229 7.06494C296.079 6.88232 295.987 6.65495 295.955 6.38281C295.93 6.13574 295.948 5.89941 296.009 5.67383C296.123 5.26204 296.36 4.92367 296.718 4.65869C296.807 4.59782 296.899 4.54053 296.992 4.48682C297.088 4.43311 297.189 4.38477 297.292 4.3418C297.5 4.25944 297.719 4.19857 297.948 4.15918C298.181 4.11621 298.415 4.09473 298.651 4.09473C298.791 4.09473 298.956 4.10189 299.146 4.11621C299.335 4.13053 299.534 4.15918 299.742 4.20215C299.949 4.24512 300.159 4.30778 300.37 4.39014C300.581 4.46891 300.778 4.57454 300.961 4.70703L300.59 5.68994C300.354 5.56462 300.128 5.46794 299.914 5.3999C299.702 5.32829 299.514 5.27279 299.35 5.2334C299.253 5.21191 299.158 5.19401 299.065 5.17969C298.975 5.16536 298.889 5.15462 298.807 5.14746C298.245 5.11523 297.806 5.17432 297.491 5.32471C297.18 5.4751 297.024 5.70247 297.024 6.00684C297.024 6.22168 297.083 6.37923 297.201 6.47949C297.319 6.57617 297.48 6.646 297.685 6.68896C297.803 6.71403 297.953 6.73551 298.136 6.75342C298.322 6.76774 298.515 6.78385 298.716 6.80176C298.92 6.81966 299.104 6.84115 299.269 6.86621C299.62 6.91992 299.915 7.00049 300.155 7.10791C300.395 7.21533 300.589 7.34066 300.735 7.48389C300.882 7.62712 300.988 7.78646 301.052 7.96191C301.117 8.13379 301.149 8.31462 301.149 8.50439ZM305.107 9.18652C305.505 9.18652 305.87 9.06836 306.203 8.83203C306.536 8.59212 306.753 8.25911 306.853 7.83301L307.889 8.04248C307.789 8.36833 307.648 8.66374 307.465 8.92871C307.283 9.19368 307.069 9.42106 306.826 9.61084C306.582 9.80062 306.314 9.94743 306.02 10.0513C305.73 10.1551 305.426 10.207 305.107 10.207C304.635 10.207 304.216 10.1354 303.85 9.99219C303.485 9.84896 303.177 9.64665 302.927 9.38525C302.415 8.85173 302.159 8.12484 302.159 7.20459C302.159 6.757 302.234 6.33984 302.384 5.95312C302.538 5.56283 302.748 5.22445 303.013 4.93799C303.277 4.65153 303.589 4.42594 303.947 4.26123C304.305 4.09652 304.692 4.01416 305.107 4.01416C305.48 4.01416 305.831 4.08757 306.16 4.23438C306.489 4.3776 306.781 4.57633 307.035 4.83057C307.29 5.08838 307.499 5.39095 307.664 5.73828C307.829 6.08561 307.932 6.46159 307.975 6.86621L303.324 7.55908C303.349 7.81331 303.412 8.04248 303.512 8.24658C303.616 8.4471 303.745 8.61719 303.899 8.75684C304.217 9.04329 304.62 9.18652 305.107 9.18652ZM303.356 6.56543L306.59 6.17334L306.557 6.07129C306.421 5.7168 306.233 5.43929 305.993 5.23877C305.757 5.03825 305.462 4.93799 305.107 4.93799C304.957 4.93799 304.792 4.96484 304.613 5.01855C304.434 5.06868 304.26 5.15641 304.092 5.28174C303.924 5.40706 303.772 5.57536 303.636 5.78662C303.503 5.9943 303.41 6.25391 303.356 6.56543ZM318.819 5.63086L318.83 5.65234L317.938 6.19482L317.928 6.1626C317.741 5.79736 317.48 5.5109 317.143 5.30322C316.807 5.09196 316.434 4.98633 316.026 4.98633C315.733 4.98633 315.457 5.04183 315.199 5.15283C314.945 5.26383 314.723 5.41602 314.533 5.60938C314.34 5.80273 314.188 6.03011 314.077 6.2915C313.966 6.54932 313.91 6.82503 313.91 7.11865C313.91 7.40869 313.966 7.68262 314.077 7.94043C314.188 8.19824 314.34 8.42383 314.533 8.61719C314.723 8.81055 314.945 8.96273 315.199 9.07373C315.457 9.18473 315.733 9.24023 316.026 9.24023C316.399 9.24023 316.751 9.14355 317.084 8.9502C317.417 8.75684 317.677 8.50081 317.863 8.18213L317.885 8.1499L318.819 8.68164L318.808 8.71387C318.669 8.94661 318.499 9.15609 318.298 9.34229C318.101 9.52848 317.881 9.68962 317.638 9.82568C317.14 10.1014 316.603 10.2393 316.026 10.2393C315.622 10.2393 315.231 10.1605 314.855 10.0029C314.479 9.84538 314.143 9.62695 313.846 9.34766C313.552 9.06836 313.316 8.73893 313.137 8.35938C312.958 7.97982 312.868 7.56624 312.868 7.11865C312.868 6.8501 312.906 6.58512 312.981 6.32373C313.131 5.79378 313.398 5.33366 313.781 4.94336C313.874 4.8431 313.974 4.75179 314.082 4.66943C314.189 4.5835 314.3 4.50472 314.415 4.43311C314.648 4.29346 314.9 4.18424 315.172 4.10547C315.444 4.02311 315.729 3.98193 316.026 3.98193C316.642 3.98193 317.199 4.12695 317.697 4.41699C318.187 4.70703 318.561 5.11165 318.819 5.63086ZM325.377 10.1963L324.324 10.019L324.4 9.26172C323.963 9.54102 323.533 9.74333 323.11 9.86865C322.692 9.99398 322.299 10.0566 321.934 10.0566C321.676 10.0566 321.426 10.0226 321.182 9.95459C320.942 9.89014 320.731 9.78809 320.548 9.64844C320.362 9.51237 320.212 9.3387 320.097 9.12744C319.986 8.9126 319.931 8.66016 319.931 8.37012C319.931 8.08008 319.974 7.82048 320.06 7.59131C320.146 7.36214 320.264 7.15983 320.414 6.98438C320.565 6.80892 320.742 6.65853 320.946 6.5332C321.15 6.40788 321.37 6.30583 321.607 6.22705C321.839 6.14827 322.085 6.09098 322.342 6.05518C322.6 6.01579 322.856 5.99609 323.11 5.99609C323.347 5.99609 323.567 6.00505 323.771 6.02295C323.975 6.04085 324.156 6.06413 324.314 6.09277C324.249 5.83854 324.161 5.60042 324.05 5.37842C323.943 5.15641 323.8 4.97738 323.621 4.84131C323.445 4.70166 323.218 4.63184 322.939 4.63184C322.799 4.63184 322.64 4.65332 322.461 4.69629C322.282 4.73568 322.085 4.80908 321.87 4.9165C321.655 5.02393 321.42 5.17253 321.166 5.3623C320.912 5.5485 320.64 5.78841 320.35 6.08203L319.7 5.29248C320.044 4.97021 320.373 4.70703 320.688 4.50293C321.003 4.29883 321.3 4.1377 321.58 4.01953C321.855 3.90495 322.111 3.82617 322.348 3.7832C322.588 3.74023 322.803 3.71875 322.992 3.71875C323.325 3.71875 323.619 3.77425 323.873 3.88525C324.131 3.99626 324.358 4.15023 324.555 4.34717C324.752 4.54053 324.917 4.76969 325.049 5.03467C325.178 5.2889 325.288 5.57178 325.377 5.8833C325.463 6.18766 325.524 6.50277 325.56 6.82861C325.599 7.15446 325.619 7.47852 325.619 7.80078C325.619 8.14453 325.599 8.51335 325.56 8.90723C325.52 9.30111 325.459 9.73079 325.377 10.1963ZM324.475 8.06396C324.482 7.88493 324.487 7.70768 324.491 7.53223C324.494 7.35677 324.485 7.17415 324.464 6.98438C324.289 6.93066 324.104 6.8877 323.911 6.85547C323.717 6.82324 323.524 6.80713 323.331 6.80713C323.008 6.80713 322.695 6.84473 322.391 6.91992C322.09 6.99512 321.83 7.10433 321.612 7.24756C321.394 7.39079 321.229 7.56624 321.118 7.77393C321.01 7.98161 320.989 8.21794 321.053 8.48291C321.103 8.69775 321.2 8.84814 321.343 8.93408C321.49 9.02002 321.666 9.06299 321.87 9.06299C322.135 9.06299 322.432 9.00749 322.761 8.89648C323.091 8.7819 323.408 8.64583 323.712 8.48828C324.02 8.33073 324.274 8.18929 324.475 8.06396ZM328.535 9.93311L327.38 10.0781L327.273 7.06494C327.266 6.86084 327.259 6.64242 327.251 6.40967C327.244 6.17334 327.237 5.95133 327.23 5.74365C327.223 5.53239 327.217 5.36589 327.214 5.24414C327.199 4.73926 327.189 4.3597 327.182 4.10547L328.406 4.08398L328.428 5.63086C328.546 5.42676 328.68 5.23519 328.831 5.05615C328.981 4.87354 329.144 4.7124 329.319 4.57275C329.495 4.43311 329.681 4.32031 329.878 4.23438C330.078 4.14844 330.288 4.09831 330.506 4.08398C330.782 4.06608 331.02 4.08936 331.221 4.15381C331.421 4.21826 331.593 4.30778 331.736 4.42236C331.879 4.53337 331.998 4.66764 332.091 4.8252C332.187 4.98633 332.261 5.14746 332.311 5.30859C332.365 5.47331 332.402 5.63981 332.424 5.80811C332.449 5.97282 332.465 6.12321 332.472 6.25928C332.494 6.87516 332.499 7.49463 332.488 8.11768C332.477 8.74072 332.465 9.38704 332.451 10.0566L331.35 10.019C331.378 9.44255 331.403 8.86605 331.425 8.28955C331.45 7.71305 331.448 7.13118 331.419 6.54395C331.419 6.41862 331.405 6.27539 331.376 6.11426C331.348 5.94954 331.296 5.78662 331.221 5.62549C331.167 5.51449 331.097 5.41602 331.011 5.33008C330.925 5.24772 330.82 5.18506 330.694 5.14209C330.573 5.09912 330.429 5.09017 330.265 5.11523C329.982 5.1582 329.695 5.3641 329.405 5.73291C329.119 6.09098 328.804 6.63346 328.46 7.36035L328.497 8.73535C328.501 8.90723 328.505 9.05762 328.508 9.18652C328.512 9.31543 328.515 9.42464 328.519 9.51416C328.526 9.72184 328.532 9.86149 328.535 9.93311ZM336.5 1.23193C336.876 1.23193 337.225 1.29997 337.548 1.43604C337.87 1.56852 338.149 1.75472 338.385 1.99463C338.618 2.23454 338.801 2.51921 338.933 2.84863C339.066 3.17806 339.132 3.53792 339.132 3.92822C339.132 4.11084 339.116 4.29525 339.084 4.48145C339.055 4.66406 339.005 4.84489 338.933 5.02393C338.858 5.20654 338.756 5.38558 338.627 5.56104C338.502 5.73291 338.342 5.89941 338.149 6.06055C338.009 6.17513 337.829 6.3112 337.607 6.46875C337.385 6.6263 337.207 6.77132 337.075 6.90381C336.914 7.06136 336.788 7.24219 336.699 7.44629C336.609 7.65039 336.588 7.89567 336.634 8.18213H335.668C335.628 8.01742 335.609 7.8724 335.609 7.74707C335.609 7.46061 335.668 7.21175 335.786 7.00049C335.904 6.78923 336.058 6.59766 336.248 6.42578C336.438 6.25391 336.64 6.08382 336.855 5.91553C337.073 5.74365 337.275 5.5682 337.462 5.38916C337.651 5.20654 337.804 5.00244 337.918 4.77686C338.036 4.55127 338.095 4.28988 338.095 3.99268C338.095 3.50212 337.945 3.0778 337.644 2.71973C337.501 2.54785 337.324 2.40999 337.112 2.30615C336.905 2.19873 336.672 2.14502 336.414 2.14502C336.099 2.14502 335.827 2.22559 335.598 2.38672C335.372 2.54427 335.199 2.75553 335.077 3.02051C334.955 3.28548 334.894 3.57373 334.894 3.88525C334.894 3.96761 334.896 4.05534 334.9 4.14844C334.907 4.23796 334.919 4.33285 334.937 4.43311L333.981 4.57812C333.942 4.4528 333.915 4.33105 333.901 4.21289C333.89 4.09473 333.884 3.97835 333.884 3.86377C333.884 3.5057 333.947 3.16732 334.072 2.84863C334.201 2.52995 334.38 2.25065 334.61 2.01074C334.839 1.77083 335.114 1.58105 335.437 1.44141C335.759 1.30176 336.113 1.23193 336.5 1.23193ZM336.844 9.51416C336.844 9.67887 336.787 9.81852 336.672 9.93311C336.557 10.0513 336.416 10.1104 336.248 10.1104C336.083 10.1104 335.942 10.0513 335.823 9.93311C335.705 9.81852 335.646 9.67887 335.646 9.51416C335.646 9.34945 335.705 9.20801 335.823 9.08984C335.942 8.97168 336.083 8.9126 336.248 8.9126C336.416 8.9126 336.557 8.97168 336.672 9.08984C336.787 9.20801 336.844 9.34945 336.844 9.51416Z" fill="white"/>
</svg>
