<svg width="281" height="20" viewBox="0 0 281 20" fill="none" xmlns="http://www.w3.org/2000/svg">
<path d="M0.688477 3.7334L2.646 3.64062L2.72021 11.0718L10.8936 10.6729L10.8008 3.77979L12.8696 3.92822L12.981 16.6753L10.9863 16.833L10.9307 12.3984L2.73877 12.7603L2.80371 16.9258L0.864746 17L0.688477 3.7334ZM19.9585 16.1465C20.645 16.1465 21.2759 15.9424 21.8511 15.5342C22.4263 15.1198 22.8005 14.5446 22.9736 13.8086L24.7642 14.1704C24.591 14.7332 24.3467 15.2435 24.0312 15.7012C23.7158 16.1589 23.3478 16.5516 22.9272 16.8794C22.5067 17.2072 22.0428 17.4608 21.5356 17.6401C21.0347 17.8195 20.509 17.9092 19.9585 17.9092C19.1421 17.9092 18.4185 17.7855 17.7876 17.5381C17.1567 17.2907 16.6248 16.9412 16.1919 16.4897C15.3075 15.5682 14.8652 14.3127 14.8652 12.7231C14.8652 11.95 14.9951 11.2295 15.2549 10.5615C15.5208 9.88737 15.8826 9.3029 16.3403 8.80811C16.798 8.31331 17.3361 7.92367 17.9546 7.63916C18.5731 7.35465 19.241 7.2124 19.9585 7.2124C20.6017 7.2124 21.2078 7.33919 21.7769 7.59277C22.3459 7.84017 22.8499 8.18343 23.2891 8.62256C23.7282 9.06787 24.09 9.59049 24.3745 10.1904C24.659 10.7904 24.8384 11.4398 24.9126 12.1387L16.8784 13.3354C16.9217 13.7746 17.0299 14.1704 17.2031 14.5229C17.3825 14.8693 17.6051 15.1631 17.8711 15.4043C18.4215 15.8991 19.1174 16.1465 19.9585 16.1465ZM16.9341 11.6191L22.519 10.9419L22.4634 10.7656C22.2284 10.1533 21.9036 9.67399 21.4893 9.32764C21.0811 8.98128 20.5708 8.80811 19.9585 8.80811C19.6987 8.80811 19.4142 8.85449 19.105 8.94727C18.7957 9.03385 18.4958 9.18538 18.2051 9.40186C17.9144 9.61833 17.6515 9.90902 17.4165 10.2739C17.1877 10.6326 17.0269 11.0811 16.9341 11.6191ZM30.1831 15.6084L29.9419 17.4546C29.5028 17.4484 29.1131 17.3742 28.7729 17.2319C28.439 17.0897 28.1452 16.9041 27.8916 16.6753C27.6318 16.4526 27.4092 16.196 27.2236 15.9053C27.0443 15.6146 26.8927 15.3208 26.769 15.0239C26.4722 14.3188 26.2866 13.521 26.2124 12.6304L26.4629 0.866699H28.4019L28.3184 3.89111C28.306 4.3488 28.2936 4.78792 28.2812 5.2085C28.2689 5.62288 28.2565 6.01872 28.2441 6.396C28.2256 7.14437 28.207 7.81852 28.1885 8.41846C28.1761 9.01221 28.1637 9.53483 28.1514 9.98633C28.1204 11.0563 28.1019 11.8944 28.0957 12.5005C28.1019 13.0695 28.1854 13.5828 28.3462 14.0405C28.4823 14.4611 28.6956 14.826 28.9863 15.1353C29.277 15.4383 29.6759 15.596 30.1831 15.6084ZM35.0269 15.6084L34.7856 17.4546C34.3465 17.4484 33.9569 17.3742 33.6167 17.2319C33.2827 17.0897 32.9889 16.9041 32.7354 16.6753C32.4756 16.4526 32.2529 16.196 32.0674 15.9053C31.888 15.6146 31.7365 15.3208 31.6128 15.0239C31.3159 14.3188 31.1304 13.521 31.0562 12.6304L31.3066 0.866699H33.2456L33.1621 3.89111C33.1497 4.3488 33.1374 4.78792 33.125 5.2085C33.1126 5.62288 33.1003 6.01872 33.0879 6.396C33.0693 7.14437 33.0508 7.81852 33.0322 8.41846C33.0199 9.01221 33.0075 9.53483 32.9951 9.98633C32.9642 11.0563 32.9456 11.8944 32.9395 12.5005C32.9456 13.0695 33.0291 13.5828 33.1899 14.0405C33.326 14.4611 33.5394 14.826 33.8301 15.1353C34.1208 15.4383 34.5197 15.596 35.0269 15.6084ZM45.27 12.5005C45.27 13.2798 45.1401 14.0003 44.8804 14.6621C44.6206 15.3239 44.265 15.8991 43.8135 16.3877C43.362 16.8763 42.8332 17.2567 42.2271 17.5288C41.6209 17.8071 40.9746 17.9463 40.2881 17.9463C38.8841 17.9463 37.7183 17.4453 36.7905 16.4434C36.339 15.9671 35.9834 15.395 35.7236 14.7271C35.4639 14.0591 35.334 13.3169 35.334 12.5005C35.334 11.6779 35.4639 10.9326 35.7236 10.2646C35.9834 9.59049 36.339 9.0153 36.7905 8.53906C37.2358 8.06283 37.7585 7.69482 38.3584 7.43506C38.9583 7.17529 39.6016 7.04541 40.2881 7.04541C40.9746 7.04541 41.6209 7.18457 42.2271 7.46289C42.8332 7.73503 43.362 8.1123 43.8135 8.59473C44.265 9.08333 44.6206 9.66162 44.8804 10.3296C45.1401 10.9914 45.27 11.715 45.27 12.5005ZM43.3125 12.4819C43.3125 12.0366 43.2568 11.5851 43.1455 11.1274C43.0342 10.6698 42.8579 10.2616 42.6167 9.90283C42.3755 9.53792 42.0632 9.24414 41.6797 9.02148C41.2962 8.79264 40.8324 8.67822 40.2881 8.67822C39.7624 8.67822 39.3109 8.79264 38.9336 9.02148C38.5563 9.24414 38.2471 9.53792 38.0059 9.90283C37.7646 10.2616 37.5884 10.6698 37.4771 11.1274C37.3657 11.5851 37.3101 12.0366 37.3101 12.4819C37.3101 12.9272 37.3688 13.3757 37.4863 13.8271C37.61 14.2725 37.7956 14.6776 38.043 15.0425C38.2904 15.4012 38.5996 15.6981 38.9707 15.9331C39.348 16.1619 39.7871 16.2764 40.2881 16.2764C40.8138 16.2764 41.2653 16.1619 41.6426 15.9331C42.026 15.6981 42.3415 15.4012 42.5889 15.0425C42.8363 14.6776 43.0187 14.2725 43.1362 13.8271C43.2537 13.3757 43.3125 12.9272 43.3125 12.4819ZM47.2749 14.2632L46.9316 2.86133L49.186 2.78711L48.7129 14.2261L47.2749 14.2632ZM49.0376 16.7124C49.0376 16.9969 48.9355 17.2381 48.7314 17.436C48.5273 17.6401 48.2799 17.7422 47.9893 17.7422C47.7048 17.7422 47.4635 17.6401 47.2656 17.436C47.0677 17.2381 46.9688 16.9969 46.9688 16.7124C46.9688 16.4279 47.0677 16.1836 47.2656 15.9795C47.4635 15.7754 47.7048 15.6733 47.9893 15.6733C48.2799 15.6733 48.5273 15.7754 48.7314 15.9795C48.9355 16.1836 49.0376 16.4279 49.0376 16.7124ZM57.6582 3.77979L59.7271 3.854L59.8477 16.6753H57.9829L57.6582 3.77979ZM81.1875 17.2134L78.998 17.5288C78.6331 16.2671 78.2466 15.0146 77.8384 13.7715L70.3701 14.0962C69.9248 15.2651 69.5011 16.4495 69.0991 17.6494L66.9932 17.3618C67.8652 15.0239 68.8301 12.7231 69.8877 10.4595C70.9515 8.1958 72.0833 5.95378 73.2832 3.7334L75.8809 3.77979C76.9447 5.92594 77.9157 8.1154 78.7939 10.3481C79.6722 12.5747 80.4701 14.8631 81.1875 17.2134ZM74.3872 5.27344C73.7625 6.46094 73.1719 7.65462 72.6152 8.85449C72.0586 10.0482 71.5267 11.2573 71.0195 12.4819L77.291 12.2129C76.8704 11.0254 76.4189 9.85954 75.9365 8.71533C75.4541 7.57113 74.9377 6.42383 74.3872 5.27344ZM82.4595 7.33301L84.3984 7.11963L84.4355 9.81934C84.7139 9.4668 85.0076 9.12044 85.3169 8.78027C85.6261 8.4401 85.9663 8.15869 86.3374 7.93604C86.7147 7.70719 87.1383 7.59277 87.6084 7.59277C88.1589 7.59277 88.6413 7.77523 89.0557 8.14014C89.4701 8.49886 89.7113 9.02767 89.7793 9.72656C90.0452 9.39258 90.3298 9.06169 90.6328 8.73389C90.9359 8.40609 91.2699 8.13395 91.6348 7.91748C91.9997 7.70101 92.4079 7.59277 92.8594 7.59277C93.4655 7.59277 93.9757 7.79688 94.3901 8.20508C94.8107 8.61328 95.0334 9.21322 95.0581 10.0049C95.0767 10.2337 95.0952 10.4904 95.1138 10.7749C95.1323 11.0532 95.1478 11.3656 95.1602 11.7119C95.1911 12.2995 95.2158 13.0479 95.2344 13.957C95.2591 14.86 95.2715 15.9455 95.2715 17.2134L93.3325 17.3062C93.3325 16.1805 93.3294 15.2188 93.3232 14.4209C93.3171 13.6169 93.3109 12.952 93.3047 12.4263L93.2769 10.9048C93.2397 9.90283 92.9676 9.40186 92.4604 9.40186C92.2316 9.40186 91.9904 9.507 91.7368 9.71729C91.4832 9.92757 91.2575 10.1595 91.0596 10.4131C90.9792 10.512 90.9019 10.611 90.8276 10.71C90.7596 10.8027 90.6916 10.8986 90.6235 10.9976C90.4875 11.1955 90.3576 11.3872 90.2339 11.5728C90.1102 11.7583 90.002 11.9222 89.9092 12.0645C89.9215 12.3366 89.9339 12.6366 89.9463 12.9644C89.9648 13.2922 89.9772 13.6632 89.9834 14.0776C89.9958 14.492 90.002 14.9559 90.002 15.4692C90.002 15.9826 90.002 16.564 90.002 17.2134L88.2021 17.3062C88.2021 16.1805 88.1898 15.2188 88.165 14.4209C88.1465 13.6169 88.1248 12.952 88.1001 12.4263C88.0877 12.117 88.0723 11.8356 88.0537 11.582C88.0413 11.3285 88.0259 11.1027 88.0073 10.9048C87.9702 9.90283 87.6981 9.40186 87.1909 9.40186C87.0363 9.40186 86.8724 9.45443 86.6992 9.55957C86.359 9.77604 86.0251 10.1007 85.6973 10.5337C85.6169 10.6388 85.5365 10.7471 85.4561 10.8584C85.3818 10.9697 85.3076 11.078 85.2334 11.1831C85.1159 11.3563 84.9798 11.5573 84.8252 11.7861C84.6768 12.015 84.5592 12.1943 84.4727 12.3242L84.5562 17.2134L82.71 17.3062L82.4595 7.33301Z" fill="white"/>
<path d="M113.104 12.2129C113.104 12.9798 112.972 13.6818 112.706 14.3188C112.446 14.9497 112.078 15.494 111.602 15.9517C111.132 16.4155 110.572 16.7835 109.922 17.0557C109.279 17.3278 108.58 17.4855 107.826 17.5288C106.954 17.5845 106.187 17.4701 105.525 17.1855C104.869 16.901 104.319 16.4928 103.874 15.9609C103.422 15.429 103.079 14.7951 102.844 14.0591C102.609 13.3231 102.482 12.5252 102.463 11.6655L104.421 11.4521C104.402 12.015 104.433 12.5067 104.514 12.9272C104.6 13.3478 104.721 13.7096 104.875 14.0127C105.024 14.3158 105.2 14.5662 105.404 14.7642C105.608 14.9621 105.819 15.1229 106.035 15.2466C106.555 15.5373 107.136 15.6795 107.779 15.6733C108.268 15.6362 108.692 15.5435 109.05 15.395C109.415 15.2528 109.724 15.0703 109.978 14.8477C110.232 14.6188 110.442 14.3621 110.609 14.0776C110.77 13.7993 110.903 13.4932 111.008 13.1592C111.101 12.8314 111.166 12.4943 111.203 12.1479C111.24 11.8016 111.258 11.4552 111.258 11.1089C111.258 10.9295 111.255 10.7316 111.249 10.5151C111.249 10.2987 111.246 10.0636 111.24 9.81006C111.221 9.30908 111.203 8.78337 111.184 8.23291C111.166 7.68245 111.141 7.13509 111.11 6.59082C111.097 6.31868 111.082 6.06201 111.063 5.8208C111.051 5.5734 111.039 5.34147 111.026 5.125C111.014 4.92708 110.999 4.7168 110.98 4.49414C110.961 4.27148 110.943 4.08285 110.924 3.92822C110.912 3.7736 110.896 3.69629 110.878 3.69629L112.891 3.65918C112.903 3.67155 112.919 3.81999 112.938 4.10449C112.95 4.39518 112.962 4.77865 112.975 5.25488C112.993 5.72493 113.012 6.26302 113.03 6.86914C113.036 7.1722 113.043 7.47835 113.049 7.7876C113.055 8.09684 113.061 8.40918 113.067 8.72461C113.08 9.36165 113.089 9.98324 113.095 10.5894C113.101 11.1955 113.104 11.7367 113.104 12.2129ZM128.283 17.2134L126.094 17.5288C125.729 16.2671 125.342 15.0146 124.934 13.7715L117.466 14.0962C117.021 15.2651 116.597 16.4495 116.195 17.6494L114.089 17.3618C114.961 15.0239 115.926 12.7231 116.983 10.4595C118.047 8.1958 119.179 5.95378 120.379 3.7334L122.977 3.77979C124.04 5.92594 125.011 8.1154 125.89 10.3481C126.768 12.5747 127.566 14.8631 128.283 17.2134ZM121.483 5.27344C120.858 6.46094 120.268 7.65462 119.711 8.85449C119.154 10.0482 118.622 11.2573 118.115 12.4819L124.387 12.2129C123.966 11.0254 123.515 9.85954 123.032 8.71533C122.55 7.57113 122.033 6.42383 121.483 5.27344ZM133.09 10.8584L136.448 3.7334L138.554 3.79834L133.925 12.8623V17.3062L132.004 17.4175L132.153 12.8159L126.967 3.98389L129.156 3.7334L133.09 10.8584ZM151.998 10.1812C151.998 11.0409 151.85 11.8201 151.553 12.519C151.25 13.2118 150.841 13.8302 150.328 14.3745C149.821 14.9126 149.227 15.3734 148.547 15.7568C148.207 15.9486 147.857 16.1248 147.499 16.2856C147.14 16.4465 146.772 16.5887 146.395 16.7124C145.64 16.9598 144.87 17.1423 144.084 17.2598C143.299 17.3773 142.541 17.436 141.812 17.436C141.564 17.436 141.32 17.4299 141.079 17.4175C140.837 17.4051 140.609 17.3804 140.392 17.3433L140.03 3.56641C140.995 3.49219 141.876 3.45508 142.674 3.45508C143.021 3.45508 143.37 3.46126 143.723 3.47363C144.075 3.486 144.434 3.50456 144.799 3.5293C145.529 3.58496 146.237 3.69629 146.923 3.86328C147.616 4.02409 148.272 4.25602 148.89 4.55908C149.502 4.86214 150.041 5.26107 150.504 5.75586C150.962 6.25684 151.324 6.86914 151.59 7.59277C151.862 8.31641 151.998 9.1792 151.998 10.1812ZM150.254 10.0884C150.235 9.49463 150.133 8.95036 149.948 8.45557C149.762 7.97314 149.509 7.54639 149.187 7.17529C148.872 6.79801 148.5 6.4764 148.074 6.21045C147.863 6.07438 147.641 5.95378 147.406 5.84863C147.177 5.7373 146.939 5.63835 146.691 5.55176C146.197 5.37858 145.677 5.25179 145.133 5.17139C144.589 5.09098 144.041 5.05078 143.491 5.05078C143.256 5.05078 143.005 5.06006 142.739 5.07861C142.479 5.09098 142.21 5.11263 141.932 5.14355L142.22 15.6362C142.269 15.6424 142.322 15.6486 142.377 15.6548C142.433 15.6548 142.489 15.6548 142.544 15.6548H142.86C143.478 15.6548 144.094 15.5991 144.706 15.4878C145.962 15.259 147.056 14.826 147.99 14.189C148.454 13.8797 148.859 13.5148 149.206 13.0942C149.546 12.686 149.809 12.2314 149.994 11.7305C150.186 11.2233 150.272 10.6759 150.254 10.0884ZM155.812 10.4409L161.323 10.2183L161.36 11.9995L155.849 12.2686L155.886 15.1724L163.902 14.7178L163.939 16.5454L154.142 17.0742L153.929 3.854L164.004 3.69629L163.939 5.46826L155.756 5.59814L155.812 10.4409ZM165.99 3.7334L167.948 3.64062L176.251 13.9199L176.103 3.77979L178.171 3.92822L178.283 16.6753L176.288 16.833L167.985 6.91553L168.105 16.9258L166.167 17L165.99 3.7334ZM197.916 15.9702L200.049 18.2153L198.723 19.3936L196.478 17C195.989 17.2598 195.469 17.4608 194.919 17.603C194.375 17.7453 193.812 17.8164 193.23 17.8164C192.581 17.8164 191.959 17.7329 191.366 17.5659C190.166 17.2196 189.133 16.6011 188.267 15.7104C187.859 15.2899 187.494 14.8044 187.172 14.2539C186.869 13.722 186.634 13.1499 186.467 12.5376C186.3 11.9253 186.217 11.2913 186.217 10.6357C186.217 9.97396 186.3 9.33691 186.467 8.72461C186.801 7.49382 187.401 6.4362 188.267 5.55176C188.688 5.125 189.161 4.75081 189.687 4.4292C190.206 4.11995 190.766 3.88184 191.366 3.71484C191.966 3.54167 192.587 3.45508 193.23 3.45508C193.874 3.45508 194.495 3.53857 195.095 3.70557C196.295 4.05192 197.328 4.66732 198.194 5.55176C198.621 5.9847 198.989 6.47021 199.298 7.0083C199.607 7.5402 199.842 8.1123 200.003 8.72461C200.17 9.33691 200.253 9.97396 200.253 10.6357C200.253 11.1615 200.198 11.6717 200.086 12.1665C199.981 12.6613 199.83 13.1375 199.632 13.5952C199.23 14.4982 198.658 15.2899 197.916 15.9702ZM198.417 10.6357C198.417 10.1533 198.355 9.68018 198.231 9.21631C197.984 8.30094 197.538 7.51237 196.895 6.85059C196.586 6.52897 196.236 6.25065 195.847 6.01562C195.049 5.5332 194.177 5.29199 193.23 5.29199C192.513 5.29199 191.842 5.43424 191.217 5.71875C190.593 5.99707 190.045 6.37744 189.575 6.85986C189.105 7.34229 188.734 7.9082 188.462 8.55762C188.196 9.20703 188.063 9.89974 188.063 10.6357C188.063 11.3717 188.196 12.0645 188.462 12.7139C188.734 13.3571 189.105 13.9199 189.575 14.4023C190.045 14.8848 190.593 15.2682 191.217 15.5527C191.842 15.8311 192.513 15.9702 193.23 15.9702C193.905 15.9702 194.542 15.8434 195.142 15.5898L193.397 13.7158L194.65 12.5005L196.663 14.6436C197.201 14.1488 197.628 13.5581 197.943 12.8716C198.259 12.1851 198.417 11.4398 198.417 10.6357ZM212.491 10.6357C212.497 10.9202 212.488 11.2048 212.463 11.4893C212.445 11.7738 212.414 12.0552 212.371 12.3335C212.278 12.8963 212.132 13.4313 211.935 13.9385C211.743 14.4395 211.492 14.9002 211.183 15.3208C210.874 15.7537 210.512 16.1217 210.098 16.4248C209.683 16.7402 209.207 16.9845 208.669 17.1577C208.131 17.3309 207.537 17.4175 206.888 17.4175C206.232 17.4175 205.657 17.3154 205.162 17.1113C204.667 16.901 204.237 16.6196 203.873 16.2671C203.508 15.9084 203.198 15.4971 202.945 15.0332C202.691 14.5632 202.49 14.0745 202.342 13.5674C202.187 13.054 202.073 12.5345 201.999 12.0088C201.924 11.4769 201.881 10.9697 201.869 10.4873C201.862 10.1781 201.862 9.85645 201.869 9.52246C201.875 9.18848 201.887 8.83903 201.906 8.47412C201.937 7.84945 201.992 7.12272 202.073 6.29395C202.159 5.46517 202.289 4.58073 202.462 3.64062L204.476 3.92822C204.333 4.54053 204.219 5.13118 204.132 5.7002C204.046 6.26921 203.978 6.8042 203.928 7.30518C203.879 7.80615 203.845 8.26383 203.826 8.67822C203.814 9.09261 203.808 9.44824 203.808 9.74512C203.808 9.91829 203.811 10.1007 203.817 10.2925C203.829 10.4842 203.842 10.6883 203.854 10.9048C203.885 11.3315 203.941 11.7645 204.021 12.2036C204.101 12.6427 204.219 13.0726 204.374 13.4932C204.522 13.9199 204.72 14.291 204.967 14.6064C205.215 14.9281 205.518 15.1909 205.876 15.395C206.235 15.5929 206.662 15.6919 207.157 15.6919C208.19 15.6919 209.006 15.2373 209.606 14.3281C209.897 13.889 210.116 13.3571 210.265 12.7324C210.419 12.1077 210.49 11.4089 210.478 10.6357C210.472 10.0111 210.435 9.3431 210.367 8.63184C210.317 8.01335 210.24 7.30518 210.135 6.50732C210.03 5.70947 209.884 4.86214 209.699 3.96533L211.675 3.69629C211.873 4.7168 212.024 5.65072 212.129 6.49805C212.235 7.33919 212.315 8.06901 212.371 8.6875C212.402 9.04622 212.426 9.38949 212.445 9.71729C212.47 10.0389 212.485 10.3451 212.491 10.6357ZM227.039 17.2134L224.85 17.5288C224.485 16.2671 224.098 15.0146 223.69 13.7715L216.222 14.0962C215.776 15.2651 215.353 16.4495 214.951 17.6494L212.845 17.3618C213.717 15.0239 214.682 12.7231 215.739 10.4595C216.803 8.1958 217.935 5.95378 219.135 3.7334L221.732 3.77979C222.796 5.92594 223.767 8.1154 224.646 10.3481C225.524 12.5747 226.322 14.8631 227.039 17.2134ZM220.239 5.27344C219.614 6.46094 219.023 7.65462 218.467 8.85449C217.91 10.0482 217.378 11.2573 216.871 12.4819L223.143 12.2129C222.722 11.0254 222.271 9.85954 221.788 8.71533C221.306 7.57113 220.789 6.42383 220.239 5.27344ZM231.846 10.8584L235.204 3.7334L237.31 3.79834L232.681 12.8623V17.3062L230.76 17.4175L230.909 12.8159L225.723 3.98389L227.912 3.7334L231.846 10.8584ZM238.879 3.7334L240.836 3.64062L249.14 13.9199L248.991 3.77979L251.06 3.92822L251.171 16.6753L249.177 16.833L240.874 6.91553L240.994 16.9258L239.055 17L238.879 3.7334ZM267.148 10.4409C267.148 11.1027 267.064 11.7367 266.897 12.3428C266.57 13.555 265.967 14.6126 265.088 15.5156C264.649 15.9671 264.176 16.3413 263.669 16.6382C263.143 16.9536 262.58 17.1979 261.98 17.3711C261.387 17.5443 260.768 17.6309 260.125 17.6309C259.463 17.6309 258.842 17.5443 258.26 17.3711C257.06 17.0247 256.028 16.4062 255.162 15.5156C254.753 15.0951 254.389 14.6095 254.067 14.0591C253.764 13.5272 253.529 12.9582 253.362 12.3521C253.195 11.7397 253.111 11.1027 253.111 10.4409C253.111 9.77913 253.195 9.14209 253.362 8.52979C253.696 7.29899 254.296 6.24137 255.162 5.35693C255.582 4.93018 256.055 4.55599 256.581 4.23438C257.101 3.92513 257.66 3.68701 258.26 3.52002C258.86 3.34684 259.482 3.26025 260.125 3.26025C260.768 3.26025 261.39 3.34375 261.99 3.51074C263.19 3.8571 264.222 4.47249 265.088 5.35693C265.515 5.78988 265.883 6.27539 266.192 6.81348C266.502 7.34538 266.737 7.91748 266.897 8.52979C267.064 9.14209 267.148 9.77913 267.148 10.4409ZM265.311 10.4409C265.311 9.9585 265.249 9.48535 265.125 9.02148C264.872 8.10612 264.427 7.32064 263.79 6.66504C263.48 6.34342 263.131 6.0651 262.741 5.83008C261.943 5.34766 261.071 5.10645 260.125 5.10645C259.408 5.10645 258.736 5.2487 258.112 5.5332C257.487 5.81152 256.94 6.19189 256.47 6.67432C256 7.15674 255.629 7.72266 255.356 8.37207C255.09 9.0153 254.958 9.70492 254.958 10.4409C254.958 11.1769 255.09 11.8696 255.356 12.519C255.629 13.1685 256 13.7344 256.47 14.2168C256.94 14.6992 257.487 15.0827 258.112 15.3672C258.736 15.6455 259.408 15.7847 260.125 15.7847C260.601 15.7847 261.062 15.7197 261.507 15.5898C262.379 15.3424 263.14 14.8848 263.79 14.2168C264.105 13.889 264.377 13.5303 264.606 13.1406C264.829 12.7448 265.002 12.3211 265.125 11.8696C265.249 11.4119 265.311 10.9357 265.311 10.4409ZM280.202 8.65967C280.184 9.1359 280.088 9.57194 279.915 9.96777C279.741 10.3636 279.513 10.7192 279.228 11.0347C278.944 11.3563 278.613 11.6439 278.235 11.8975C277.858 12.1449 277.456 12.3582 277.029 12.5376L279.729 16.7866L277.809 17.4175L275.211 13.085C274.914 13.1406 274.605 13.187 274.283 13.2241C273.968 13.2612 273.618 13.2798 273.235 13.2798C272.926 13.2798 272.585 13.2674 272.214 13.2427C271.849 13.2118 271.466 13.1592 271.064 13.085L271.101 17.0186L269.144 17.0928V3.96533C269.675 3.80452 270.207 3.68392 270.739 3.60352C271.271 3.52311 271.757 3.46126 272.196 3.41797C272.709 3.36849 273.201 3.34066 273.671 3.33447C274.073 3.33447 274.518 3.3623 275.007 3.41797C275.495 3.47363 275.984 3.57259 276.473 3.71484C276.967 3.8571 277.447 4.05501 277.911 4.30859C278.368 4.56217 278.773 4.88379 279.126 5.27344C279.472 5.66927 279.744 6.14551 279.942 6.70215C280.14 7.25879 280.227 7.9113 280.202 8.65967ZM273.671 5.19922C273.529 5.19922 273.383 5.20231 273.235 5.2085C273.093 5.21468 272.944 5.22396 272.79 5.23633C272.53 5.25488 272.242 5.28271 271.927 5.31982C271.611 5.35075 271.305 5.40023 271.008 5.46826L271.045 11.3779C271.336 11.4336 271.627 11.4738 271.917 11.4985C272.214 11.5171 272.502 11.5264 272.78 11.5264C273.522 11.5264 274.224 11.4429 274.886 11.2759C275.554 11.1027 276.139 10.8677 276.64 10.5708C277.141 10.2739 277.54 9.92448 277.836 9.52246C278.133 9.11426 278.282 8.67513 278.282 8.20508C278.282 7.72884 278.167 7.30518 277.938 6.93408C277.716 6.56299 277.4 6.24756 276.992 5.98779C276.151 5.46208 275.044 5.19922 273.671 5.19922Z" fill="#7127BA"/>
</svg>
