<svg width="384" height="117" viewBox="0 0 384 117" fill="none" xmlns="http://www.w3.org/2000/svg">
<path d="M28.1016 25.083C28.1016 27.1012 27.7516 28.9486 27.0518 30.625C26.3682 32.2852 25.3997 33.7174 24.1465 34.9219C22.9095 36.1426 21.4365 37.111 19.7275 37.8271C18.0348 38.5433 16.1956 38.9583 14.21 39.0723C11.915 39.2188 9.89681 38.9176 8.15527 38.1689C6.43001 37.4202 4.98145 36.346 3.80957 34.9463C2.62142 33.5465 1.7181 31.8783 1.09961 29.9414C0.48112 28.0046 0.147461 25.9049 0.0986328 23.6426L5.25 23.0811C5.20117 24.5622 5.28255 25.8561 5.49414 26.9629C5.72201 28.0697 6.03939 29.0218 6.44629 29.8193C6.83691 30.6169 7.30078 31.276 7.83789 31.7969C8.375 32.3177 8.92839 32.7409 9.49805 33.0664C10.8652 33.8314 12.3952 34.2057 14.0879 34.1895C15.3737 34.0918 16.4886 33.8477 17.4326 33.457C18.3929 33.0827 19.2067 32.6025 19.874 32.0166C20.5413 31.4144 21.0947 30.7389 21.5342 29.9902C21.9574 29.2578 22.3073 28.4521 22.584 27.5732C22.8281 26.7106 22.999 25.8236 23.0967 24.9121C23.1943 24.0007 23.2432 23.0892 23.2432 22.1777C23.2432 21.7057 23.235 21.1849 23.2188 20.6152C23.2188 20.0456 23.2106 19.4271 23.1943 18.7598C23.1455 17.4414 23.0967 16.0579 23.0479 14.6094C22.999 13.1608 22.9339 11.7204 22.8525 10.2881C22.82 9.57194 22.7793 8.89648 22.7305 8.26172C22.6979 7.61068 22.6654 7.00033 22.6328 6.43066C22.6003 5.90983 22.5596 5.35645 22.5107 4.77051C22.4619 4.18457 22.4131 3.68815 22.3643 3.28125C22.3317 2.87435 22.291 2.6709 22.2422 2.6709L27.54 2.57324C27.5726 2.60579 27.6133 2.99642 27.6621 3.74512C27.6947 4.51009 27.7272 5.51921 27.7598 6.77246C27.8086 8.00944 27.8574 9.42546 27.9062 11.0205C27.9225 11.818 27.9388 12.6237 27.9551 13.4375C27.9714 14.2513 27.9876 15.0732 28.0039 15.9033C28.0365 17.5798 28.0609 19.2155 28.0771 20.8105C28.0934 22.4056 28.1016 23.8298 28.1016 25.083ZM61.0107 39.3408L55.4443 39.4385L55.3467 32.4316C54.8096 33.3919 54.1992 34.3034 53.5156 35.166C52.832 36.0124 52.0915 36.7529 51.2939 37.3877C50.4964 38.0387 49.6419 38.5514 48.7305 38.9258C47.8353 39.3001 46.8913 39.471 45.8984 39.4385C44.4173 39.3896 43.1641 39.113 42.1387 38.6084C41.097 38.1038 40.21 37.4284 39.4775 36.582C38.7614 35.7357 38.1917 34.7673 37.7686 33.6768C37.3128 32.5374 36.9792 31.3818 36.7676 30.21C36.5397 28.9893 36.3851 27.7441 36.3037 26.4746C36.2386 25.1888 36.2061 23.9437 36.2061 22.7393C36.2061 21.0465 36.2793 19.3376 36.4258 17.6123C36.5723 15.8708 36.7839 14.0967 37.0605 12.29L42.0654 12.4365C41.805 14.4548 41.626 16.2695 41.5283 17.8809C41.4469 19.4922 41.4062 20.9082 41.4062 22.1289C41.4062 22.4056 41.4062 22.723 41.4062 23.0811C41.4062 23.4229 41.4144 23.8053 41.4307 24.2285C41.4469 25.0749 41.5039 25.9782 41.6016 26.9385C41.7155 27.8825 41.8864 28.8184 42.1143 29.7461C42.3258 30.6413 42.6514 31.4632 43.0908 32.2119C43.514 32.9443 44.0348 33.5059 44.6533 33.8965C45.2881 34.2871 46.0693 34.4173 46.9971 34.2871C48.234 34.1243 49.5443 33.2617 50.9277 31.6992C52.2949 30.1367 53.7191 27.7604 55.2002 24.5703L55.0781 18.3691C55.0618 17.6042 55.0456 16.9287 55.0293 16.3428C55.013 15.7406 54.9967 15.236 54.9805 14.8291C54.9479 13.8525 54.9235 13.1852 54.9072 12.8271L60.1562 12.2412L60.4248 19.8096C60.4574 20.9489 60.4899 22.0231 60.5225 23.0322C60.555 24.0413 60.5876 24.9935 60.6201 25.8887C60.6527 26.8001 60.6852 27.8011 60.7178 28.8916C60.7503 29.9658 60.7829 30.9749 60.8154 31.9189C60.848 32.863 60.8724 33.6117 60.8887 34.165C60.9212 35.3206 60.9456 36.3298 60.9619 37.1924C60.9782 38.055 60.9945 38.7712 61.0107 39.3408ZM89.916 14.8291L90.1113 2.3291L94.7012 2.6709L94.6035 38.6816H89.5986L89.6475 35.5811C88.736 36.4274 87.7513 37.1029 86.6934 37.6074C85.6517 38.112 84.6589 38.4863 83.7148 38.7305C82.6895 38.9909 81.6722 39.1374 80.6631 39.1699C76.8219 39.1699 73.6481 37.8923 71.1416 35.3369C69.9372 34.1162 68.985 32.627 68.2852 30.8691C67.6016 29.1113 67.2598 27.1338 67.2598 24.9365C67.2598 22.723 67.6423 20.7536 68.4072 19.0283C69.1885 17.2868 70.1976 15.8219 71.4346 14.6338C72.6878 13.4456 74.0957 12.5423 75.6582 11.9238C77.2207 11.2891 78.7995 10.9717 80.3945 10.9717C81.485 10.988 82.5918 11.1344 83.7148 11.4111C84.6751 11.639 85.7087 12.0215 86.8154 12.5586C87.9222 13.0794 88.9557 13.8363 89.916 14.8291ZM80.6631 34.6777C82.7139 34.6777 84.5856 34.0511 86.2783 32.7979C87.971 31.5609 89.1266 29.9414 89.7451 27.9395L89.7939 22.7393C89.501 21.6976 89.0452 20.7454 88.4268 19.8828C87.8083 19.0039 87.084 18.2552 86.2539 17.6367C84.5124 16.3346 82.5999 15.6836 80.5166 15.6836C79.3122 15.6836 78.2054 15.9359 77.1963 16.4404C76.1872 16.9287 75.3164 17.6042 74.584 18.4668C73.8516 19.3294 73.2819 20.3467 72.875 21.5186C72.4681 22.6904 72.2646 23.96 72.2646 25.3271C72.2646 26.6943 72.4681 27.9476 72.875 29.0869C73.2982 30.2262 73.8841 31.2109 74.6328 32.041C75.3652 32.8711 76.2441 33.5221 77.2695 33.9941C78.3112 34.4499 79.4424 34.6777 80.6631 34.6777ZM123.973 15.3418L124.021 10.4834L128.807 10.6299L128.66 38.6816C128.644 39.2025 128.603 39.7314 128.538 40.2686C128.473 40.8057 128.375 41.3346 128.245 41.8555C127.724 43.9876 126.707 45.9326 125.193 47.6904C124.428 48.5531 123.558 49.3262 122.581 50.0098C121.588 50.6771 120.481 51.2223 119.261 51.6455C118.04 52.085 116.705 52.3617 115.257 52.4756C113.336 52.5407 111.481 52.3372 109.69 51.8652C108.095 51.4421 106.549 50.7015 105.052 49.6436C103.554 48.5856 102.439 47.1126 101.707 45.2246L106.419 43.1738C106.989 44.4596 107.794 45.4525 108.836 46.1523C109.894 46.8685 110.968 47.3324 112.059 47.5439C113.247 47.8044 114.5 47.8532 115.818 47.6904C116.388 47.5765 116.917 47.43 117.405 47.251C117.91 47.0719 118.374 46.8685 118.797 46.6406C119.627 46.1686 120.335 45.6396 120.921 45.0537C121.523 44.484 122.003 43.8818 122.361 43.2471C122.54 42.9215 122.695 42.6042 122.825 42.2949C122.972 41.9857 123.102 41.6846 123.216 41.3916C123.427 40.8057 123.566 40.2686 123.631 39.7803C123.712 39.3083 123.753 38.9421 123.753 38.6816V35.4834C122.776 36.4111 121.759 37.1273 120.701 37.6318C119.66 38.1201 118.691 38.4782 117.796 38.7061C117.275 38.8363 116.754 38.9421 116.233 39.0234C115.729 39.1048 115.224 39.1536 114.72 39.1699C110.879 39.1699 107.705 37.8923 105.198 35.3369C103.994 34.1162 103.042 32.627 102.342 30.8691C101.658 29.1113 101.316 27.1338 101.316 24.9365C101.316 22.723 101.699 20.7536 102.464 19.0283C103.245 17.2868 104.254 15.8219 105.491 14.6338C106.744 13.4456 108.152 12.5423 109.715 11.9238C111.277 11.2891 112.856 10.9717 114.451 10.9717C115.558 11.1019 116.673 11.346 117.796 11.7041C118.756 12.0133 119.79 12.4528 120.896 13.0225C122.003 13.5921 123.029 14.3652 123.973 15.3418ZM114.72 34.4824C116.901 34.4824 118.862 33.7663 120.604 32.334C121.417 31.6667 122.109 30.8691 122.679 29.9414C123.248 28.9974 123.639 27.9639 123.851 26.8408V23.6426C123.672 22.487 123.289 21.4372 122.703 20.4932C122.117 19.5329 121.401 18.7109 120.555 18.0273C118.797 16.5951 116.803 15.8789 114.573 15.8789C113.401 15.8789 112.319 16.123 111.326 16.6113C110.35 17.0833 109.503 17.7425 108.787 18.5889C108.087 19.4352 107.534 20.4362 107.127 21.5918C106.72 22.7474 106.517 23.9925 106.517 25.3271C106.517 26.6618 106.72 27.8906 107.127 29.0137C107.534 30.1204 108.104 31.0807 108.836 31.8945C109.552 32.6921 110.407 33.3268 111.399 33.7988C112.409 34.2546 113.515 34.4824 114.72 34.4824ZM148.679 35.4346C150.485 35.4346 152.146 34.8975 153.659 33.8232C155.173 32.7327 156.158 31.2191 156.613 29.2822L161.325 30.2344C160.869 31.7155 160.227 33.0583 159.396 34.2627C158.566 35.4671 157.598 36.5007 156.491 37.3633C155.384 38.2259 154.164 38.8932 152.829 39.3652C151.511 39.8372 150.127 40.0732 148.679 40.0732C146.53 40.0732 144.626 39.7477 142.966 39.0967C141.306 38.4456 139.906 37.526 138.767 36.3379C136.439 33.9128 135.275 30.6087 135.275 26.4258C135.275 24.3913 135.617 22.4951 136.301 20.7373C137.001 18.9632 137.953 17.4251 139.157 16.123C140.362 14.821 141.778 13.7956 143.405 13.0469C145.033 12.2982 146.791 11.9238 148.679 11.9238C150.371 11.9238 151.966 12.2575 153.464 12.9248C154.961 13.5758 156.288 14.4792 157.443 15.6348C158.599 16.8066 159.551 18.182 160.3 19.7607C161.049 21.3395 161.521 23.0485 161.716 24.8877L140.573 28.0371C140.687 29.1927 140.972 30.2344 141.428 31.1621C141.9 32.0736 142.486 32.8467 143.186 33.4814C144.634 34.7835 146.465 35.4346 148.679 35.4346ZM140.72 23.5205L155.417 21.7383L155.271 21.2744C154.652 19.6631 153.798 18.4017 152.707 17.4902C151.633 16.5788 150.29 16.123 148.679 16.123C147.995 16.123 147.246 16.2451 146.433 16.4893C145.619 16.7171 144.829 17.1159 144.064 17.6855C143.299 18.2552 142.608 19.0202 141.989 19.9805C141.387 20.9245 140.964 22.1045 140.72 23.5205ZM190.06 32.334C190.06 33.8802 189.75 35.1823 189.132 36.2402C188.513 37.2819 187.675 38.1364 186.617 38.8037C185.576 39.4548 184.371 39.9349 183.004 40.2441C181.637 40.5697 180.221 40.765 178.756 40.8301C177.226 40.7975 175.712 40.6429 174.215 40.3662C172.896 40.1383 171.44 39.7152 169.845 39.0967C168.25 38.4782 166.817 37.6725 165.548 36.6797L167.916 32.9688C168.811 33.4408 169.723 33.8965 170.65 34.3359C171.594 34.7754 172.555 35.1579 173.531 35.4834C174.508 35.8252 175.509 36.0938 176.534 36.2891C177.56 36.4844 178.618 36.582 179.708 36.582C181.254 36.582 182.442 36.3298 183.272 35.8252C184.103 35.3044 184.648 34.6696 184.908 33.9209C185.201 32.9443 184.916 32.0085 184.054 31.1133C183.891 30.9505 183.704 30.804 183.492 30.6738C183.281 30.5273 183.045 30.389 182.784 30.2588C182.263 30.0146 181.629 29.8112 180.88 29.6484C180.131 29.4857 179.244 29.3799 178.219 29.3311C176.754 29.266 175.338 29.1195 173.971 28.8916C172.62 28.6475 171.415 28.2731 170.357 27.7686C169.283 27.264 168.396 26.6048 167.696 25.791C167.013 24.9609 166.598 23.9274 166.451 22.6904C166.337 21.5674 166.419 20.4932 166.695 19.4678C167.216 17.596 168.29 16.0579 169.918 14.8535C170.325 14.5768 170.74 14.3164 171.163 14.0723C171.603 13.8281 172.058 13.6084 172.53 13.4131C173.474 13.0387 174.467 12.762 175.509 12.583C176.567 12.3877 177.633 12.29 178.707 12.29C179.342 12.29 180.09 12.3226 180.953 12.3877C181.816 12.4528 182.719 12.583 183.663 12.7783C184.607 12.9736 185.559 13.2585 186.52 13.6328C187.48 13.9909 188.375 14.471 189.205 15.0732L187.521 19.541C186.446 18.9714 185.421 18.5319 184.444 18.2227C183.484 17.8971 182.63 17.6449 181.881 17.4658C181.441 17.3682 181.01 17.2868 180.587 17.2217C180.18 17.1566 179.789 17.1077 179.415 17.0752C176.86 16.9287 174.866 17.1973 173.434 17.8809C172.018 18.5645 171.31 19.598 171.31 20.9814C171.31 21.958 171.578 22.6742 172.115 23.1299C172.652 23.5693 173.385 23.8867 174.312 24.082C174.85 24.196 175.533 24.2936 176.363 24.375C177.21 24.4401 178.089 24.5133 179 24.5947C179.928 24.6761 180.766 24.7738 181.515 24.8877C183.11 25.1318 184.452 25.498 185.543 25.9863C186.633 26.4746 187.512 27.0443 188.18 27.6953C188.847 28.3464 189.327 29.0706 189.62 29.8682C189.913 30.6494 190.06 31.4714 190.06 32.334ZM238.227 40.0244L233.441 39.2188L233.783 35.7764C231.798 37.0459 229.844 37.9655 227.924 38.5352C226.02 39.1048 224.237 39.3896 222.577 39.3896C221.405 39.3896 220.266 39.235 219.159 38.9258C218.069 38.6328 217.108 38.1689 216.278 37.5342C215.432 36.9157 214.748 36.1263 214.228 35.166C213.723 34.1895 213.471 33.042 213.471 31.7236C213.471 30.4053 213.666 29.2253 214.057 28.1836C214.447 27.1419 214.984 26.2223 215.668 25.4248C216.352 24.6273 217.157 23.9437 218.085 23.374C219.013 22.8044 220.014 22.3405 221.088 21.9824C222.146 21.6243 223.261 21.3639 224.433 21.2012C225.604 21.0221 226.768 20.9326 227.924 20.9326C228.998 20.9326 229.999 20.9733 230.927 21.0547C231.854 21.1361 232.676 21.2419 233.393 21.3721C233.1 20.2165 232.701 19.1341 232.196 18.125C231.708 17.1159 231.057 16.3021 230.243 15.6836C229.446 15.0488 228.412 14.7314 227.143 14.7314C226.508 14.7314 225.784 14.8291 224.97 15.0244C224.156 15.2035 223.261 15.5371 222.284 16.0254C221.308 16.5137 220.242 17.1891 219.086 18.0518C217.93 18.8981 216.693 19.9886 215.375 21.3232L212.421 17.7344C213.983 16.2695 215.481 15.0732 216.913 14.1455C218.345 13.2178 219.696 12.4854 220.966 11.9482C222.219 11.4274 223.383 11.0693 224.457 10.874C225.548 10.6787 226.524 10.5811 227.387 10.5811C228.9 10.5811 230.235 10.8333 231.391 11.3379C232.562 11.8424 233.596 12.5423 234.491 13.4375C235.386 14.3164 236.135 15.3581 236.737 16.5625C237.323 17.7181 237.82 19.0039 238.227 20.4199C238.617 21.8034 238.894 23.2357 239.057 24.7168C239.236 26.1979 239.325 27.6709 239.325 29.1357C239.325 30.6982 239.236 32.3747 239.057 34.165C238.878 35.9554 238.601 37.9085 238.227 40.0244ZM234.125 30.332C234.158 29.5182 234.182 28.7126 234.198 27.915C234.215 27.1175 234.174 26.2874 234.076 25.4248C233.279 25.1807 232.44 24.9854 231.562 24.8389C230.683 24.6924 229.804 24.6191 228.925 24.6191C227.46 24.6191 226.036 24.79 224.652 25.1318C223.285 25.4736 222.105 25.9701 221.112 26.6211C220.119 27.2721 219.371 28.0697 218.866 29.0137C218.378 29.9577 218.28 31.0319 218.573 32.2363C218.801 33.2129 219.241 33.8965 219.892 34.2871C220.559 34.6777 221.356 34.873 222.284 34.873C223.489 34.873 224.84 34.6208 226.337 34.1162C227.834 33.5954 229.275 32.9769 230.658 32.2607C232.058 31.5446 233.214 30.9017 234.125 30.332ZM265.08 38.9258L264.665 1.2793L270.012 1.08398L269.865 15.4883C270.809 14.5768 271.786 13.877 272.795 13.3887C273.82 12.8841 274.764 12.5179 275.627 12.29C276.701 11.9971 277.686 11.8424 278.581 11.8262C279.704 11.8262 280.803 11.9808 281.877 12.29C284.074 12.9248 286.011 14.0723 287.688 15.7324C288.501 16.5299 289.209 17.4333 289.812 18.4424C290.397 19.4352 290.845 20.5176 291.154 21.6895C291.464 22.8451 291.602 24.0576 291.569 25.3271C291.521 26.6943 291.309 28.0127 290.935 29.2822C290.186 31.7399 288.981 33.807 287.321 35.4834C286.524 36.3135 285.661 37.0133 284.733 37.583C282.845 38.7549 280.909 39.3408 278.923 39.3408C278.418 39.3245 277.906 39.2757 277.385 39.1943C276.88 39.113 276.368 39.0072 275.847 38.877C274.935 38.6491 273.934 38.2829 272.844 37.7783C271.753 37.2738 270.679 36.5576 269.621 35.6299V38.8281L265.08 38.9258ZM286.32 25.791C286.402 24.5703 286.247 23.3984 285.856 22.2754C285.482 21.1361 284.929 20.1351 284.196 19.2725C283.448 18.4098 282.544 17.7262 281.486 17.2217C280.445 16.7171 279.305 16.473 278.068 16.4893C276.099 16.5218 274.374 17.124 272.893 18.2959C271.428 19.4515 270.386 20.8838 269.768 22.5928L269.719 28.4277C270.288 30.3971 271.306 31.9271 272.771 33.0176C274.235 34.0918 275.855 34.6452 277.629 34.6777C278.817 34.7103 279.924 34.4987 280.949 34.043C281.991 33.571 282.902 32.9362 283.684 32.1387C284.449 31.3249 285.059 30.3809 285.515 29.3066C285.987 28.2161 286.255 27.0443 286.32 25.791ZM322.501 25.8398C322.501 27.8906 322.159 29.7868 321.476 31.5283C320.792 33.2699 319.856 34.7835 318.668 36.0693C317.48 37.3551 316.088 38.3561 314.493 39.0723C312.898 39.8047 311.197 40.1709 309.391 40.1709C305.696 40.1709 302.628 38.8525 300.187 36.2158C298.998 34.9626 298.062 33.457 297.379 31.6992C296.695 29.9414 296.354 27.9883 296.354 25.8398C296.354 23.6751 296.695 21.7139 297.379 19.9561C298.062 18.182 298.998 16.6683 300.187 15.415C301.358 14.1618 302.734 13.1934 304.312 12.5098C305.891 11.8262 307.584 11.4844 309.391 11.4844C311.197 11.4844 312.898 11.8506 314.493 12.583C316.088 13.2992 317.48 14.292 318.668 15.5615C319.856 16.8473 320.792 18.3691 321.476 20.127C322.159 21.8685 322.501 23.7728 322.501 25.8398ZM317.35 25.791C317.35 24.6191 317.203 23.431 316.91 22.2266C316.617 21.0221 316.153 19.9479 315.519 19.0039C314.884 18.0436 314.062 17.2705 313.053 16.6846C312.044 16.0824 310.823 15.7812 309.391 15.7812C308.007 15.7812 306.819 16.0824 305.826 16.6846C304.833 17.2705 304.02 18.0436 303.385 19.0039C302.75 19.9479 302.286 21.0221 301.993 22.2266C301.7 23.431 301.554 24.6191 301.554 25.791C301.554 26.9629 301.708 28.1429 302.018 29.3311C302.343 30.5029 302.831 31.569 303.482 32.5293C304.133 33.4733 304.947 34.2546 305.924 34.873C306.917 35.4753 308.072 35.7764 309.391 35.7764C310.774 35.7764 311.962 35.4753 312.955 34.873C313.964 34.2546 314.794 33.4733 315.445 32.5293C316.096 31.569 316.576 30.5029 316.886 29.3311C317.195 28.1429 317.35 26.9629 317.35 25.791ZM353.433 25.8398C353.433 27.8906 353.091 29.7868 352.407 31.5283C351.724 33.2699 350.788 34.7835 349.6 36.0693C348.411 37.3551 347.02 38.3561 345.425 39.0723C343.83 39.8047 342.129 40.1709 340.322 40.1709C336.628 40.1709 333.56 38.8525 331.118 36.2158C329.93 34.9626 328.994 33.457 328.311 31.6992C327.627 29.9414 327.285 27.9883 327.285 25.8398C327.285 23.6751 327.627 21.7139 328.311 19.9561C328.994 18.182 329.93 16.6683 331.118 15.415C332.29 14.1618 333.665 13.1934 335.244 12.5098C336.823 11.8262 338.516 11.4844 340.322 11.4844C342.129 11.4844 343.83 11.8506 345.425 12.583C347.02 13.2992 348.411 14.292 349.6 15.5615C350.788 16.8473 351.724 18.3691 352.407 20.127C353.091 21.8685 353.433 23.7728 353.433 25.8398ZM348.281 25.791C348.281 24.6191 348.135 23.431 347.842 22.2266C347.549 21.0221 347.085 19.9479 346.45 19.0039C345.815 18.0436 344.993 17.2705 343.984 16.6846C342.975 16.0824 341.755 15.7812 340.322 15.7812C338.939 15.7812 337.751 16.0824 336.758 16.6846C335.765 17.2705 334.951 18.0436 334.316 19.0039C333.682 19.9479 333.218 21.0221 332.925 22.2266C332.632 23.431 332.485 24.6191 332.485 25.791C332.485 26.9629 332.64 28.1429 332.949 29.3311C333.275 30.5029 333.763 31.569 334.414 32.5293C335.065 33.4733 335.879 34.2546 336.855 34.873C337.848 35.4753 339.004 35.7764 340.322 35.7764C341.706 35.7764 342.894 35.4753 343.887 34.873C344.896 34.2546 345.726 33.4733 346.377 32.5293C347.028 31.569 347.508 30.5029 347.817 29.3311C348.127 28.1429 348.281 26.9629 348.281 25.791ZM359.657 38.2422L360.902 0.571289L366.322 0.668945L365.419 23.8379L378.163 11.0205L381.923 14.0234L372.816 23.0322L383.314 36.6797L379.018 39.8291L369.203 26.6211L365.15 30.5762L364.906 37.9248L359.657 38.2422ZM2.90625 101.926L2.49121 64.2793L7.83789 64.084L7.69141 78.4883C8.63542 77.5768 9.61198 76.877 10.6211 76.3887C11.6465 75.8841 12.5905 75.5179 13.4531 75.29C14.5273 74.9971 15.512 74.8424 16.4072 74.8262C17.5303 74.8262 18.6289 74.9808 19.7031 75.29C21.9004 75.9248 23.8372 77.0723 25.5137 78.7324C26.3275 79.5299 27.0355 80.4333 27.6377 81.4424C28.2236 82.4352 28.6712 83.5176 28.9805 84.6895C29.2897 85.8451 29.4281 87.0576 29.3955 88.3271C29.3467 89.6943 29.1351 91.0127 28.7607 92.2822C28.012 94.7399 26.8076 96.807 25.1475 98.4834C24.3499 99.3135 23.4873 100.013 22.5596 100.583C20.6715 101.755 18.7347 102.341 16.749 102.341C16.2445 102.325 15.7318 102.276 15.2109 102.194C14.7064 102.113 14.1937 102.007 13.6729 101.877C12.7614 101.649 11.7604 101.283 10.6699 100.778C9.57943 100.274 8.50521 99.5576 7.44727 98.6299V101.828L2.90625 101.926ZM24.1465 88.791C24.2279 87.5703 24.0732 86.3984 23.6826 85.2754C23.3083 84.1361 22.7549 83.1351 22.0225 82.2725C21.2738 81.4098 20.3704 80.7262 19.3125 80.2217C18.2708 79.7171 17.1315 79.473 15.8945 79.4893C13.9251 79.5218 12.1999 80.124 10.7188 81.2959C9.25391 82.4515 8.21224 83.8838 7.59375 85.5928L7.54492 91.4277C8.11458 93.3971 9.13184 94.9271 10.5967 96.0176C12.0615 97.0918 13.681 97.6452 15.4551 97.6777C16.6432 97.7103 17.75 97.4987 18.7754 97.043C19.8171 96.571 20.7285 95.9362 21.5098 95.1387C22.2747 94.3249 22.8851 93.3809 23.3408 92.3066C23.8128 91.2161 24.0814 90.0443 24.1465 88.791ZM51.9531 75.9248L57.3975 75.9736C56.5348 78.5127 55.7454 80.832 55.0293 82.9316C54.3294 85.0312 53.6947 86.9274 53.125 88.6201C52.832 89.4827 52.5065 90.4349 52.1484 91.4766C51.8066 92.502 51.473 93.4785 51.1475 94.4062C50.8382 95.3177 50.5859 96.0501 50.3906 96.6035C49.9837 97.7591 49.6257 98.7926 49.3164 99.7041C49.0072 100.599 48.7386 101.356 48.5107 101.975C48.348 102.447 48.1689 102.935 47.9736 103.439C47.7946 103.96 47.5993 104.497 47.3877 105.051C46.9482 106.125 46.4111 107.199 45.7764 108.273C45.1579 109.348 44.4336 110.389 43.6035 111.398C42.7897 112.359 41.8132 113.254 40.6738 114.084C39.5508 114.865 38.2731 115.508 36.8408 116.013C35.4085 116.517 33.7972 116.81 32.0068 116.892L31.0547 112.131C32.0638 112.245 33.016 112.22 33.9111 112.058C35.6201 111.683 37.1419 110.902 38.4766 109.714C39.0788 109.177 39.6647 108.575 40.2344 107.907C40.7552 107.272 41.2191 106.621 41.626 105.954C42.0329 105.303 42.391 104.693 42.7002 104.123L32.3975 76.7793L37.9883 76.0225L45.1904 97.5312C45.5811 96.3268 46.0368 94.9108 46.5576 93.2832C47.0947 91.6393 47.6644 89.8734 48.2666 87.9854C48.8525 86.0973 49.4629 84.1279 50.0977 82.0771C50.7324 80.0101 51.3509 77.9593 51.9531 75.9248ZM87.9375 68.1367C87.9375 69.0807 87.5876 69.8945 86.8877 70.5781C86.2041 71.2454 85.3822 71.5791 84.4219 71.5791C83.4779 71.5791 82.6641 71.2454 81.9805 70.5781C81.3132 69.8945 80.9795 69.0807 80.9795 68.1367C80.9795 67.1764 81.3132 66.3545 81.9805 65.6709C82.6641 64.971 83.4779 64.6211 84.4219 64.6211C85.3822 64.6211 86.2041 64.971 86.8877 65.6709C87.5876 66.3545 87.9375 67.1764 87.9375 68.1367ZM81.7363 76.9258L86.79 76.7305L86.5459 88.4492C86.4645 91.6719 86.4157 94.2028 86.3994 96.042C86.3506 98.2881 86.3262 100.054 86.3262 101.34H81.3213C81.3376 100.461 81.3538 99.5007 81.3701 98.459C81.4027 97.401 81.4271 96.2699 81.4434 95.0654C81.4759 92.9658 81.5247 90.4186 81.5898 87.4238L81.7363 76.9258ZM100.388 76.5352L100.583 65.8418L105.441 65.5244L105.271 76.4375L114.743 76.1201L114.377 80.6855L105.222 80.9297L105.026 102.219L99.875 102.341L100.29 81.0762L91.8428 81.2715L91.9404 76.7793L100.388 76.5352ZM142.013 95.334C142.013 96.8802 141.703 98.1823 141.085 99.2402C140.466 100.282 139.628 101.136 138.57 101.804C137.529 102.455 136.324 102.935 134.957 103.244C133.59 103.57 132.174 103.765 130.709 103.83C129.179 103.798 127.665 103.643 126.168 103.366C124.85 103.138 123.393 102.715 121.798 102.097C120.203 101.478 118.771 100.673 117.501 99.6797L119.869 95.9688C120.764 96.4408 121.676 96.8965 122.604 97.3359C123.548 97.7754 124.508 98.1579 125.484 98.4834C126.461 98.8252 127.462 99.0938 128.487 99.2891C129.513 99.4844 130.571 99.582 131.661 99.582C133.207 99.582 134.396 99.3298 135.226 98.8252C136.056 98.3044 136.601 97.6696 136.861 96.9209C137.154 95.9443 136.869 95.0085 136.007 94.1133C135.844 93.9505 135.657 93.804 135.445 93.6738C135.234 93.5273 134.998 93.389 134.737 93.2588C134.216 93.0146 133.582 92.8112 132.833 92.6484C132.084 92.4857 131.197 92.3799 130.172 92.3311C128.707 92.266 127.291 92.1195 125.924 91.8916C124.573 91.6475 123.368 91.2731 122.311 90.7686C121.236 90.264 120.349 89.6048 119.649 88.791C118.966 87.9609 118.551 86.9274 118.404 85.6904C118.29 84.5674 118.372 83.4932 118.648 82.4678C119.169 80.596 120.243 79.0579 121.871 77.8535C122.278 77.5768 122.693 77.3164 123.116 77.0723C123.556 76.8281 124.011 76.6084 124.483 76.4131C125.427 76.0387 126.42 75.762 127.462 75.583C128.52 75.3877 129.586 75.29 130.66 75.29C131.295 75.29 132.044 75.3226 132.906 75.3877C133.769 75.4528 134.672 75.583 135.616 75.7783C136.56 75.9736 137.512 76.2585 138.473 76.6328C139.433 76.9909 140.328 77.471 141.158 78.0732L139.474 82.541C138.399 81.9714 137.374 81.5319 136.397 81.2227C135.437 80.8971 134.583 80.6449 133.834 80.4658C133.395 80.3682 132.963 80.2868 132.54 80.2217C132.133 80.1566 131.743 80.1077 131.368 80.0752C128.813 79.9287 126.819 80.1973 125.387 80.8809C123.971 81.5645 123.263 82.598 123.263 83.9814C123.263 84.958 123.531 85.6742 124.068 86.1299C124.605 86.5693 125.338 86.8867 126.266 87.082C126.803 87.196 127.486 87.2936 128.316 87.375C129.163 87.4401 130.042 87.5133 130.953 87.5947C131.881 87.6761 132.719 87.7738 133.468 87.8877C135.063 88.1318 136.406 88.498 137.496 88.9863C138.587 89.4746 139.465 90.0443 140.133 90.6953C140.8 91.3464 141.28 92.0706 141.573 92.8682C141.866 93.6494 142.013 94.4714 142.013 95.334ZM321.913 99.2891C321.913 100.135 321.604 100.86 320.985 101.462C320.383 102.08 319.659 102.39 318.812 102.39C317.95 102.39 317.209 102.08 316.591 101.462C315.972 100.86 315.663 100.135 315.663 99.2891C315.663 98.4102 315.964 97.6696 316.566 97.0674C317.185 96.4489 317.934 96.1396 318.812 96.1396C319.675 96.1396 320.408 96.4489 321.01 97.0674C321.612 97.6859 321.913 98.4264 321.913 99.2891ZM335.364 99.2891C335.364 100.135 335.055 100.86 334.437 101.462C333.834 102.08 333.11 102.39 332.264 102.39C331.401 102.39 330.66 102.08 330.042 101.462C329.424 100.86 329.114 100.135 329.114 99.2891C329.114 98.4102 329.415 97.6696 330.018 97.0674C330.636 96.4489 331.385 96.1396 332.264 96.1396C333.126 96.1396 333.859 96.4489 334.461 97.0674C335.063 97.6859 335.364 98.4264 335.364 99.2891ZM348.815 99.2891C348.815 100.135 348.506 100.86 347.888 101.462C347.285 102.08 346.561 102.39 345.715 102.39C344.852 102.39 344.112 102.08 343.493 101.462C342.875 100.86 342.565 100.135 342.565 99.2891C342.565 98.4102 342.867 97.6696 343.469 97.0674C344.087 96.4489 344.836 96.1396 345.715 96.1396C346.577 96.1396 347.31 96.4489 347.912 97.0674C348.514 97.6859 348.815 98.4264 348.815 99.2891Z" fill="white"/>
<path d="M191.693 82.2725L191.742 82.3701L187.689 84.8359L187.641 84.6895C186.794 83.0293 185.606 81.7272 184.076 80.7832C182.546 79.8229 180.854 79.3428 178.998 79.3428C177.663 79.3428 176.41 79.5951 175.238 80.0996C174.083 80.6042 173.074 81.2959 172.211 82.1748C171.332 83.0537 170.64 84.0872 170.136 85.2754C169.631 86.4473 169.379 87.7005 169.379 89.0352C169.379 90.3535 169.631 91.5986 170.136 92.7705C170.64 93.9424 171.332 94.9678 172.211 95.8467C173.074 96.7256 174.083 97.4173 175.238 97.9219C176.41 98.4264 177.663 98.6787 178.998 98.6787C180.691 98.6787 182.294 98.2393 183.808 97.3604C185.321 96.4814 186.501 95.3177 187.348 93.8691L187.445 93.7227L191.693 96.1396L191.645 96.2861C191.01 97.3441 190.237 98.2962 189.325 99.1426C188.43 99.9889 187.429 100.721 186.322 101.34C184.06 102.593 181.618 103.22 178.998 103.22C177.159 103.22 175.385 102.862 173.676 102.146C171.967 101.429 170.437 100.437 169.086 99.167C167.751 97.8975 166.677 96.4001 165.863 94.6748C165.049 92.9495 164.643 91.0697 164.643 89.0352C164.643 87.8145 164.813 86.61 165.155 85.4219C165.839 83.013 167.051 80.9215 168.793 79.1475C169.216 78.6917 169.672 78.2767 170.16 77.9023C170.648 77.5117 171.153 77.1536 171.674 76.8281C172.732 76.1934 173.879 75.6969 175.116 75.3389C176.353 74.9645 177.647 74.7773 178.998 74.7773C181.798 74.7773 184.328 75.4365 186.591 76.7549C188.821 78.0732 190.521 79.9124 191.693 82.2725ZM222.21 88.8398C222.21 90.8906 221.868 92.7868 221.185 94.5283C220.501 96.2699 219.565 97.7835 218.377 99.0693C217.189 100.355 215.797 101.356 214.202 102.072C212.607 102.805 210.906 103.171 209.1 103.171C205.405 103.171 202.337 101.853 199.896 99.2158C198.707 97.9626 197.771 96.457 197.088 94.6992C196.404 92.9414 196.062 90.9883 196.062 88.8398C196.062 86.6751 196.404 84.7139 197.088 82.9561C197.771 81.182 198.707 79.6683 199.896 78.415C201.067 77.1618 202.443 76.1934 204.021 75.5098C205.6 74.8262 207.293 74.4844 209.1 74.4844C210.906 74.4844 212.607 74.8506 214.202 75.583C215.797 76.2992 217.189 77.292 218.377 78.5615C219.565 79.8473 220.501 81.3691 221.185 83.127C221.868 84.8685 222.21 86.7728 222.21 88.8398ZM217.059 88.791C217.059 87.6191 216.912 86.431 216.619 85.2266C216.326 84.0221 215.862 82.9479 215.228 82.0039C214.593 81.0436 213.771 80.2705 212.762 79.6846C211.753 79.0824 210.532 78.7812 209.1 78.7812C207.716 78.7812 206.528 79.0824 205.535 79.6846C204.542 80.2705 203.729 81.0436 203.094 82.0039C202.459 82.9479 201.995 84.0221 201.702 85.2266C201.409 86.431 201.263 87.6191 201.263 88.791C201.263 89.9629 201.417 91.1429 201.727 92.3311C202.052 93.5029 202.54 94.569 203.191 95.5293C203.842 96.4733 204.656 97.2546 205.633 97.873C206.626 98.4753 207.781 98.7764 209.1 98.7764C210.483 98.7764 211.671 98.4753 212.664 97.873C213.673 97.2546 214.503 96.4733 215.154 95.5293C215.805 94.569 216.285 93.5029 216.595 92.3311C216.904 91.1429 217.059 89.9629 217.059 88.791ZM238.835 97.0918L246.599 75.2412L251.628 75.9248L242.033 101.633L235.148 101.535L226.579 76.877L231.535 76.1201L238.835 97.0918ZM268.937 98.4346C270.743 98.4346 272.403 97.8975 273.917 96.8232C275.431 95.7327 276.415 94.2191 276.871 92.2822L281.583 93.2344C281.127 94.7155 280.484 96.0583 279.654 97.2627C278.824 98.4671 277.856 99.5007 276.749 100.363C275.642 101.226 274.422 101.893 273.087 102.365C271.769 102.837 270.385 103.073 268.937 103.073C266.788 103.073 264.884 102.748 263.224 102.097C261.563 101.446 260.164 100.526 259.024 99.3379C256.697 96.9128 255.533 93.6087 255.533 89.4258C255.533 87.3913 255.875 85.4951 256.559 83.7373C257.258 81.9632 258.211 80.4251 259.415 79.123C260.619 77.821 262.035 76.7956 263.663 76.0469C265.291 75.2982 267.049 74.9238 268.937 74.9238C270.629 74.9238 272.224 75.2575 273.722 75.9248C275.219 76.5758 276.546 77.4792 277.701 78.6348C278.857 79.8066 279.809 81.182 280.558 82.7607C281.306 84.3395 281.778 86.0485 281.974 87.8877L260.831 91.0371C260.945 92.1927 261.23 93.2344 261.686 94.1621C262.158 95.0736 262.743 95.8467 263.443 96.4814C264.892 97.7835 266.723 98.4346 268.937 98.4346ZM260.978 86.5205L275.675 84.7383L275.528 84.2744C274.91 82.6631 274.055 81.4017 272.965 80.4902C271.891 79.5788 270.548 79.123 268.937 79.123C268.253 79.123 267.504 79.2451 266.69 79.4893C265.877 79.7171 265.087 80.1159 264.322 80.6855C263.557 81.2552 262.866 82.0202 262.247 82.9805C261.645 83.9245 261.222 85.1045 260.978 86.5205ZM311.074 85.1289L306.265 86.9355C306.248 85.5521 306.053 84.429 305.679 83.5664C305.321 82.7038 304.84 82.0527 304.238 81.6133C303.669 81.1901 303.026 80.9948 302.31 81.0273C301.838 81.1087 301.357 81.2959 300.869 81.5889C300.365 81.8981 299.836 82.305 299.282 82.8096C298.745 83.3141 298.208 83.8757 297.671 84.4941C297.394 84.8034 297.126 85.1208 296.865 85.4463C296.605 85.7718 296.344 86.0973 296.084 86.4229C295.579 87.0739 295.099 87.7331 294.644 88.4004C294.188 89.0514 293.781 89.6455 293.423 90.1826C293.439 90.8499 293.455 91.6149 293.472 92.4775C293.488 93.3239 293.504 94.1621 293.521 94.9922C293.553 95.806 293.577 96.4977 293.594 97.0674C293.626 98.0928 293.659 99.0205 293.691 99.8506C293.724 100.664 293.765 101.324 293.813 101.828L288.564 102.487L288.076 88.791C288.044 87.8633 288.011 86.8704 287.979 85.8125C287.946 84.7383 287.913 83.7292 287.881 82.7852C287.848 81.8249 287.824 81.068 287.808 80.5146C287.743 78.2197 287.694 76.4945 287.661 75.3389L293.228 75.2412C293.244 75.7458 293.252 76.2503 293.252 76.7549C293.252 77.2432 293.26 77.7477 293.276 78.2686C293.276 78.7894 293.276 79.2939 293.276 79.7822C293.276 80.2542 293.285 80.7018 293.301 81.125C293.317 81.6296 293.325 82.1341 293.325 82.6387C293.325 83.127 293.325 83.6071 293.325 84.0791C293.797 83.3304 294.375 82.5085 295.059 81.6133C295.742 80.7181 296.507 79.8717 297.354 79.0742C298.216 78.2767 299.152 77.585 300.161 76.999C301.17 76.3968 302.253 76.0225 303.408 75.876C304.678 75.8109 305.866 76.0876 306.973 76.7061C307.428 76.9665 307.876 77.3164 308.315 77.7559C308.771 78.179 309.194 78.7243 309.585 79.3916C309.959 80.0752 310.277 80.889 310.537 81.833C310.798 82.7607 310.977 83.8594 311.074 85.1289Z" fill="#7127BA"/>
</svg>
